<svg width="43" height="43" viewBox="0 0 43 43" fill="none" xmlns="http://www.w3.org/2000/svg">
<g clip-path="url(#clip0_1_294)">
<path d="M21.5149 0.251221C9.79337 0.251221 0.257812 9.78677 0.257812 21.5083C0.257812 33.2297 9.79337 42.7653 21.5149 42.7653C33.2363 42.7653 42.7719 33.2297 42.7719 21.5083C42.7719 9.78677 33.2363 0.251221 21.5149 0.251221ZM21.5149 40.9939C10.7712 40.9939 2.02923 32.2519 2.02923 21.5083C2.02923 10.7646 10.7712 2.02264 21.5149 2.02264C32.2585 2.02264 41.0005 10.7646 41.0005 21.5083C41.0005 32.2519 32.2585 40.9939 21.5149 40.9939ZM30.372 21.5083C30.372 21.9972 29.9752 22.394 29.4862 22.394H22.4006V29.4797C22.4006 29.9686 22.0038 30.3654 21.5149 30.3654C21.0259 30.3654 20.6291 29.9686 20.6291 29.4797V22.394H13.5435C13.0546 22.394 12.6578 21.9972 12.6578 21.5083C12.6578 21.0194 13.0546 20.6226 13.5435 20.6226H20.6291V13.5369C20.6291 13.048 21.0259 12.6512 21.5149 12.6512C22.0038 12.6512 22.4006 13.048 22.4006 13.5369V20.6226H29.4862C29.9752 20.6226 30.372 21.0194 30.372 21.5083Z" fill="#2C2C2C" fill-opacity="0.6"/>
</g>
<defs>
<clipPath id="clip0_1_294">
<rect width="42.5141" height="42.5141" fill="white" transform="translate(0.257812 0.251221)"/>
</clipPath>
</defs>
</svg>
