<svg width="40" height="40" viewBox="0 0 40 40" fill="none" xmlns="http://www.w3.org/2000/svg">
<rect x="0.5" y="0.5" width="39" height="39" rx="9.5" stroke="#2C2C2C" stroke-opacity="0.5" stroke-dasharray="5 5"/>
<g clip-path="url(#clip0_170_526)">
<path d="M19.5 12C15.3644 12 12 15.3644 12 19.5C12 23.6356 15.3644 27 19.5 27C23.6356 27 27 23.6356 27 19.5C27 15.3644 23.6356 12 19.5 12ZM19.5 26.375C15.7094 26.375 12.625 23.2906 12.625 19.5C12.625 15.7094 15.7094 12.625 19.5 12.625C23.2906 12.625 26.375 15.7094 26.375 19.5C26.375 23.2906 23.2906 26.375 19.5 26.375ZM22.625 19.5C22.625 19.6725 22.485 19.8125 22.3125 19.8125H19.8125V22.3125C19.8125 22.485 19.6725 22.625 19.5 22.625C19.3275 22.625 19.1875 22.485 19.1875 22.3125V19.8125H16.6875C16.515 19.8125 16.375 19.6725 16.375 19.5C16.375 19.3275 16.515 19.1875 16.6875 19.1875H19.1875V16.6875C19.1875 16.515 19.3275 16.375 19.5 16.375C19.6725 16.375 19.8125 16.515 19.8125 16.6875V19.1875H22.3125C22.485 19.1875 22.625 19.3275 22.625 19.5Z" fill="#2C2C2C" fill-opacity="0.5"/>
</g>
<defs>
<clipPath id="clip0_170_526">
<rect width="15" height="15" fill="white" transform="translate(12 12)"/>
</clipPath>
</defs>
</svg>
