<svg width="36" height="35" viewBox="0 0 36 35" fill="none" xmlns="http://www.w3.org/2000/svg">
<path fill-rule="evenodd" clip-rule="evenodd" d="M28.329 27.8102C23.9282 32.2675 17.4115 33.2306 12.0787 30.7329C11.2914 30.4119 10.646 30.1525 10.0324 30.1525C8.32327 30.1627 6.19593 31.8411 5.09028 30.7227C3.98465 29.6028 5.64311 27.4467 5.64311 25.7054C5.64311 25.0839 5.39709 24.4419 5.08016 23.643C2.61272 18.2431 3.56496 11.6414 7.96582 7.18548C13.5837 1.49392 22.7111 1.49392 28.329 7.184C33.9571 12.8844 33.947 22.1201 28.329 27.8102Z" stroke="white" stroke-width="1.5" stroke-linecap="round" stroke-linejoin="round"/>
<path d="M23.8182 18.1023H23.8307" stroke="white" stroke-width="2" stroke-linecap="round" stroke-linejoin="round"/>
<path d="M18.0469 18.1023H18.0595" stroke="white" stroke-width="2" stroke-linecap="round" stroke-linejoin="round"/>
<path d="M12.2729 18.1023H12.2854" stroke="white" stroke-width="2" stroke-linecap="round" stroke-linejoin="round"/>
</svg>
