<svg width="29" height="29" viewBox="0 0 29 29" fill="none" xmlns="http://www.w3.org/2000/svg">
<circle cx="13.6212" cy="14.5" r="13.6212" fill="#2C2C2C" fill-opacity="0.6"/>
<path d="M20.7697 9.97115C20.6768 9.87449 20.5661 9.79773 20.4441 9.74536C20.3223 9.69298 20.1915 9.66602 20.0594 9.66602C19.9274 9.66602 19.7966 9.69298 19.6747 9.74536C19.5527 9.79773 19.4421 9.87449 19.3491 9.97115L11.8955 17.6676L8.764 14.428C8.66743 14.3319 8.55344 14.2563 8.42853 14.2055C8.30361 14.1547 8.17022 14.1298 8.03598 14.1322C7.90173 14.1346 7.76926 14.1643 7.64612 14.2194C7.52299 14.2746 7.41159 14.3543 7.31831 14.4539C7.22503 14.5535 7.15168 14.671 7.10245 14.7998C7.05322 14.9286 7.02908 15.0662 7.0314 15.2046C7.03373 15.343 7.06247 15.4797 7.11598 15.6066C7.16951 15.7336 7.24676 15.8484 7.34332 15.9446L11.1852 19.9063C11.2782 20.003 11.3888 20.0798 11.5107 20.1322C11.6327 20.1845 11.7635 20.2115 11.8955 20.2115C12.0276 20.2115 12.1584 20.1845 12.2802 20.1322C12.4022 20.0798 12.5128 20.003 12.6058 19.9063L20.7697 11.4877C20.8713 11.3912 20.9524 11.2739 21.0078 11.1434C21.0632 11.0129 21.0919 10.872 21.0919 10.7294C21.0919 10.587 21.0632 10.4461 21.0078 10.3156C20.9524 10.185 20.8713 10.0678 20.7697 9.97115Z" fill="white"/>
</svg>
