<svg width="75" height="67" viewBox="0 0 75 67" fill="none" xmlns="http://www.w3.org/2000/svg">
<path d="M60.7423 1.79088C59.6134 1.42564 58.418 1.19322 57.1895 1.06041C41.5177 -0.533342 37.5001 14.4081 37.5001 14.4081C37.5001 14.4081 33.4825 -0.533342 17.8438 1.06041C3.30086 2.52135 -4.33586 20.8495 5.19344 36.2557C7.91609 40.6717 12.1661 45.4198 16.7149 49.8358C25.8458 58.701 36.1388 66.0721 37.5001 66.0721C39.5587 66.0721 61.5723 49.5702 69.8067 36.2889C78.5391 22.1776 72.8946 5.60924 60.7423 1.79088Z" fill="#FC4F4F"/>
<path d="M69.8066 36.2559C78.5391 22.1777 72.8945 5.60938 60.7422 1.79102C60.7422 1.79102 72.8613 13.4785 65.8887 25.498C58.916 37.5176 35.6074 52.459 32.3203 52.9902C29.5977 53.4219 22.6914 52.791 16.7148 49.8691C25.8457 58.7344 36.1387 66.1055 37.5 66.1055C39.5586 66.0723 61.5723 49.5703 69.8066 36.2559Z" fill="black" fill-opacity="0.0823529"/>
<path opacity="0.3" d="M14.9992 15.444C17.9445 11.955 18.901 7.91827 17.1354 6.42784C15.3699 4.93742 11.5509 6.55764 8.60553 10.0467C5.66015 13.5358 4.70373 17.5725 6.46929 19.0629C8.23484 20.5533 12.0538 18.9331 14.9992 15.444Z" fill="white"/>
</svg>
