<svg width="76" height="59" viewBox="0 0 76 59" fill="none" xmlns="http://www.w3.org/2000/svg">
<path d="M56.4852 20.3445L57.5945 22.5629C59.1734 25.7248 57.6517 29.6294 53.5639 30.766C53.5122 30.7832 47.85 32.3031 46.1303 27.1524L44.4729 22.1737L49.1894 17.4553L37.551 0L25.9127 17.4553L30.6291 22.1737L28.9717 27.1524C27.0749 32.8353 19.2688 31.4974 17.428 27.4899C16.7014 25.9121 16.7315 24.1172 17.5075 22.5629L18.6146 20.3465L0 13.702L8.93462 47.9935L13.3371 52.396H61.7649L66.1674 47.9935L75.1192 13.7042L56.4852 20.3445Z" fill="#FED843"/>
<path d="M66.1672 47.9935L75.119 13.7042L56.485 20.3445L57.5943 22.5629C59.1732 25.7248 57.6515 29.6294 53.5636 30.766C53.512 30.7832 47.8497 32.3031 46.1301 27.1524L44.4727 22.1737L49.1891 17.4553L37.5508 0V52.396H61.7646L66.1672 47.9935Z" fill="#FABE2C"/>
<path d="M37.551 47.9932H8.93457V58.9995H66.1673V47.9932H37.551Z" fill="#FABE2C"/>
<path d="M37.5508 47.9932H66.1672V58.9995H37.5508V47.9932Z" fill="#FF9100"/>
<path d="M26.5361 47.9915L37.5407 36.9868L48.5455 47.9915L37.5407 58.9962L26.5361 47.9915Z" fill="#FABE2C"/>
<path d="M37.5508 36.9873V58.9999L48.5571 47.9936L37.5508 36.9873Z" fill="#FF9100"/>
</svg>
