<svg width="21" height="5" viewBox="0 0 21 5" fill="none" xmlns="http://www.w3.org/2000/svg">
<path d="M0.574875 2.344C0.574875 1.168 1.31888 0.376 2.54288 0.376C3.76688 0.376 4.48688 1.168 4.48688 2.344C4.48688 3.496 3.74288 4.288 2.51888 4.288C1.29488 4.288 0.574875 3.496 0.574875 2.344ZM8.54363 2.344C8.54363 1.168 9.28763 0.376 10.5116 0.376C11.7356 0.376 12.4556 1.168 12.4556 2.344C12.4556 3.496 11.7116 4.288 10.4876 4.288C9.26363 4.288 8.54363 3.496 8.54363 2.344ZM16.5124 2.344C16.5124 1.168 17.2564 0.376 18.4804 0.376C19.7044 0.376 20.4244 1.168 20.4244 2.344C20.4244 3.496 19.6804 4.288 18.4564 4.288C17.2324 4.288 16.5124 3.496 16.5124 2.344Z" fill="#2C2C2C"/>
</svg>
