<svg width="28" height="28" viewBox="0 0 28 28" fill="none" xmlns="http://www.w3.org/2000/svg">
<path d="M20.3407 12.1209V6.82203C20.3407 6.67039 20.2707 6.53022 20.1716 6.41937L14.2307 0.180961C14.1197 0.0643124 13.9622 0 13.8047 0H4.38571C2.64676 0 1.25781 1.41804 1.25781 3.1571V20.9679C1.25781 22.707 2.64676 24.1018 4.38566 24.1018H11.8206C13.2269 26.436 15.7831 27.9999 18.695 27.9999C23.1184 27.9999 26.7308 24.4051 26.7308 19.9758C26.7368 16.1067 23.9588 12.8737 20.3407 12.121V12.1209ZM14.3884 2.04848L18.3741 6.24426H15.7889C15.0185 6.24426 14.3883 5.60825 14.3883 4.83798L14.3884 2.04848ZM4.38566 22.9345C3.29448 22.9345 2.42506 22.0591 2.42506 20.968V3.1571C2.42506 2.05996 3.29448 1.16725 4.38566 1.16725H13.2211V4.83787C13.2211 6.25591 14.3708 7.41145 15.7889 7.41145H19.1735V11.9691C18.9985 11.9633 18.8584 11.9457 18.7067 11.9457C16.67 11.9457 14.7968 12.7278 13.3845 13.9534H5.97312C5.65205 13.9534 5.3895 14.2159 5.3895 14.5368C5.3895 14.8579 5.652 15.1204 5.97312 15.1204H12.2991C11.8847 15.704 11.5403 16.2877 11.2721 16.9296H5.97307C5.652 16.9296 5.38945 17.1921 5.38945 17.5132C5.38945 17.8341 5.65194 18.0968 5.97307 18.0968H10.8926C10.7467 18.6804 10.6708 19.3282 10.6708 19.9759C10.6708 21.0262 10.875 22.0651 11.2427 22.9405H4.38566V22.9345ZM18.701 26.8387C14.9194 26.8387 11.8439 23.7631 11.8439 19.9816C11.8439 16.2 14.9135 13.1245 18.701 13.1245C22.4883 13.1245 25.5578 16.2 25.5578 19.9816C25.5578 23.7631 22.4825 26.8387 18.701 26.8387Z" fill="#2C2C2C"/>
<path d="M6.08362 12.1967H11.9952C12.3162 12.1967 12.5788 11.934 12.5788 11.6131C12.5788 11.2921 12.3163 11.0295 11.9952 11.0295H6.08362C5.76255 11.0295 5.5 11.292 5.5 11.6131C5.5 11.934 5.7625 12.1967 6.08362 12.1967ZM21.7992 19.859L19.4009 22.4442V16.0717C19.4009 15.7506 19.1381 15.488 18.8172 15.488C18.4962 15.488 18.2337 15.7505 18.2337 16.0717V22.4442L15.8176 19.859C15.5958 19.6257 15.2224 19.6082 14.9889 19.8299C14.7554 20.0517 14.7379 20.4193 14.9598 20.6528L18.3738 24.3235C18.4846 24.4401 18.6363 24.5102 18.7998 24.5102C18.9631 24.5102 19.1148 24.4402 19.2257 24.3235L22.6456 20.6528C22.8673 20.4193 22.8556 20.0459 22.6221 19.8299C22.3829 19.6082 22.0211 19.6257 21.7992 19.859Z" fill="#2C2C2C"/>
</svg>
