<svg width="23" height="22" viewBox="0 0 23 22" fill="none" xmlns="http://www.w3.org/2000/svg">
<rect width="23" height="22" rx="11" fill="#3995FF"/>
<path fill-rule="evenodd" clip-rule="evenodd" d="M10.4539 15.2235L15.2132 9.06878C15.4718 8.73688 15.5638 8.35316 15.4776 7.96245C15.4029 7.60727 15.1844 7.26955 14.8568 7.01334L14.0578 6.37866C13.3623 5.8255 12.5002 5.88373 12.0058 6.51841L11.4713 7.21189C11.4023 7.29866 11.4195 7.42676 11.5058 7.49664C11.5058 7.49664 12.8565 8.57967 12.8853 8.60296C12.9772 8.6903 13.0462 8.80675 13.0635 8.9465C13.0922 9.22018 12.9025 9.47637 12.6209 9.51131C12.4887 9.52877 12.3622 9.48802 12.2702 9.41233L10.8505 8.2827C10.7815 8.23089 10.678 8.24195 10.6206 8.31182L7.24654 12.6789C7.02811 12.9526 6.95339 13.3078 7.02811 13.6513L7.4592 15.5204C7.4822 15.6193 7.56842 15.6892 7.67188 15.6892L9.5687 15.6659C9.91357 15.6602 10.2355 15.5029 10.4539 15.2235ZM13.1098 14.6413H16.2028C16.5045 14.6413 16.75 14.89 16.75 15.1957C16.75 15.5019 16.5045 15.75 16.2028 15.75H13.1098C12.8081 15.75 12.5626 15.5019 12.5626 15.1957C12.5626 14.89 12.8081 14.6413 13.1098 14.6413Z" fill="white"/>
</svg>
