<svg width="10" height="10" viewBox="0 0 10 10" fill="none" xmlns="http://www.w3.org/2000/svg">
<path fill-rule="evenodd" clip-rule="evenodd" d="M3.45388 9.2235L8.21317 3.06878C8.47183 2.73688 8.5638 2.35316 8.47758 1.96245C8.40286 1.60727 8.18443 1.26955 7.8568 1.01334L7.05784 0.378657C6.36234 -0.174504 5.50015 -0.116275 5.00583 0.518407L4.47126 1.21189C4.40229 1.29866 4.41954 1.42676 4.50576 1.49664C4.50576 1.49664 5.85652 2.57967 5.88526 2.60296C5.97723 2.6903 6.0462 2.80675 6.06345 2.9465C6.09219 3.22018 5.9025 3.47637 5.62085 3.51131C5.48866 3.52877 5.3622 3.48802 5.27023 3.41233L3.85049 2.2827C3.78152 2.23089 3.67805 2.24195 3.62058 2.31182L0.246536 6.6789C0.0281139 6.95256 -0.0466145 7.30775 0.0281138 7.6513L0.459205 9.52044C0.482204 9.61935 0.568415 9.68922 0.671885 9.68922L2.5687 9.66593C2.91357 9.66019 3.23546 9.50289 3.45388 9.2235ZM6.10983 8.64135H9.2028C9.50452 8.64135 9.75 8.88997 9.75 9.19567C9.75 9.50192 9.50452 9.75 9.2028 9.75H6.10983C5.80807 9.75 5.56263 9.50192 5.56263 9.19567C5.56263 8.88997 5.80807 8.64135 6.10983 8.64135Z" fill="white"/>
</svg>
