<svg width="73" height="73" viewBox="0 0 73 73" fill="none" xmlns="http://www.w3.org/2000/svg">
<rect width="73" height="73" rx="36.5" fill="#3995FF"/>
<path d="M54.5455 29.6625C54.2711 29.3882 53.8252 29.3882 53.5509 29.6625L49.6357 33.5775L40.3354 24.2774L44.2505 20.3624C44.5249 20.0881 44.5249 19.6422 44.2505 19.3678C43.9762 19.0935 43.5302 19.0935 43.2559 19.3678L38.9525 23.6711L30.1741 26.9193C28.213 27.6452 26.6993 29.2784 26.1254 31.2887L21.1214 48.8253C20.7866 49.9648 21.0876 51.1451 21.9261 51.9849C22.5408 52.5996 23.3371 52.9246 24.1657 52.9246C24.4682 52.9246 24.7762 52.881 25.0787 52.791L42.5582 47.8251C44.5614 47.2554 46.1933 45.7516 46.9249 43.8032L50.2407 34.9603L54.5441 30.6571C54.8184 30.3827 54.8198 29.9368 54.5455 29.6625ZM22.538 50.4248C22.538 50.4248 22.5366 50.4206 22.5352 50.4192C22.5394 50.4192 22.5408 50.4192 22.538 50.4248ZM23.4862 51.373C23.4862 51.373 23.4904 51.373 23.489 51.373H23.4862ZM45.6067 43.308C45.0313 44.8414 43.7483 46.0245 42.1727 46.4718L24.6876 51.4405C24.2909 51.5558 23.8829 51.5333 23.5186 51.3856L32.4137 42.4907C32.9694 42.8593 33.6362 43.0745 34.3523 43.0745C36.2909 43.0745 37.8693 41.4961 37.8693 39.5576C37.8693 37.6191 36.2909 36.0407 34.3523 36.0407C32.4137 36.0407 30.8353 37.6191 30.8353 39.5576C30.8353 40.2737 31.0506 40.939 31.4191 41.4961L22.524 50.391C22.3762 50.0267 22.3537 49.6173 22.4719 49.2164L27.4773 31.6742C27.9289 30.0916 29.119 28.8072 30.6609 28.2374L39.1621 25.0919L48.8184 34.7479L45.6067 43.308ZM32.2421 39.5576C32.2421 38.3942 33.1889 37.4475 34.3523 37.4475C35.5157 37.4475 36.4625 38.3942 36.4625 39.5576C36.4625 40.721 35.5157 41.6677 34.3523 41.6677C33.1889 41.6677 32.2421 40.721 32.2421 39.5576Z" fill="white"/>
</svg>
