<svg width="20" height="18" viewBox="0 0 20 18" fill="none" xmlns="http://www.w3.org/2000/svg">
<path fill-rule="evenodd" clip-rule="evenodd" d="M13.2959 0.000151326C13.9016 0.000151326 14.5064 0.0844643 15.0815 0.274884C18.6248 1.41171 19.9016 5.2485 18.835 8.60215C18.2302 10.3159 17.2415 11.88 15.9464 13.158C14.0927 14.9296 12.0584 16.5022 9.86874 17.8569L9.62872 18L9.37914 17.8474C7.18172 16.5022 5.13596 14.9296 3.26494 13.1486C1.97856 11.8705 0.988804 10.3159 0.374414 8.60215C-0.710379 5.2485 0.56641 1.41171 4.14813 0.254989C4.42651 0.160251 4.71359 0.0939398 5.00158 0.0569928H5.11678C5.38652 0.0181473 5.65436 0.000151326 5.92317 0.000151326H6.02875C6.63355 0.0181474 7.21916 0.122361 7.78652 0.31278H7.84314C7.88155 0.330776 7.91036 0.35067 7.92954 0.368672C8.14167 0.435933 8.34235 0.511725 8.53433 0.615933L8.89911 0.776982C8.98729 0.823376 9.08619 0.894269 9.17172 0.955533C9.22593 0.99435 9.27471 1.02931 9.31192 1.05172C9.32759 1.06084 9.34354 1.07001 9.35956 1.07926C9.44187 1.12668 9.52763 1.17607 9.59992 1.23077C10.6665 0.426463 11.9615 -0.00932416 13.2959 0.000151326ZM15.8495 6.82114C16.243 6.81074 16.5791 6.49902 16.6079 6.10022V5.98744C16.6367 4.66019 15.8216 3.45799 14.5823 2.99383C14.1887 2.86023 13.7567 3.0696 13.6127 3.46749C13.4783 3.86538 13.6895 4.30118 14.0927 4.44232C14.708 4.66969 15.1198 5.26749 15.1198 5.92969V5.95902C15.1016 6.17599 15.1679 6.38533 15.3023 6.54642C15.4366 6.70746 15.6382 6.80124 15.8495 6.82114Z" fill="url(#paint0_linear_24_2782)"/>
<defs>
<linearGradient id="paint0_linear_24_2782" x1="19.2" y1="18" x2="-3.40475" y2="11.009" gradientUnits="userSpaceOnUse">
<stop stop-color="#FF4D67"/>
<stop offset="1" stop-color="#FF8A9B"/>
</linearGradient>
</defs>
</svg>
