<svg width="26" height="26" viewBox="0 0 22 22" fill="none" xmlns="http://www.w3.org/2000/svg">
<path fill-rule="evenodd" clip-rule="evenodd" d="M15.1614 0.600274C15.8475 0.600274 16.5327 0.698639 17.1841 0.920795C21.198 2.2471 22.6444 6.72335 21.4361 10.6359C20.751 12.6353 19.631 14.4601 18.1639 15.9511C16.064 18.018 13.7596 19.8527 11.279 21.4332L11.0071 21.6001L10.7244 21.4221C8.23515 19.8527 5.91769 18.018 3.79818 15.9401C2.34095 14.4491 1.21974 12.6353 0.52375 10.6359C-0.705117 6.72335 0.741246 2.2471 4.79867 0.897585C5.11402 0.787057 5.43922 0.709694 5.76547 0.666589H5.89596C6.20153 0.62127 6.50494 0.600274 6.80945 0.600274H6.92906C7.61418 0.62127 8.27757 0.742852 8.92027 0.965007H8.98441C9.02793 0.986003 9.06056 1.00921 9.08229 1.03022C9.3226 1.10869 9.54993 1.19711 9.7674 1.31869L10.1806 1.50658C10.2805 1.5607 10.3926 1.64341 10.4895 1.71489C10.5509 1.76017 10.6061 1.80096 10.6483 1.8271C10.666 1.83775 10.6841 1.84844 10.7022 1.85923C10.7955 1.91455 10.8926 1.97218 10.9745 2.036C12.1827 1.09764 13.6497 0.589219 15.1614 0.600274ZM18.0541 8.55809C18.4999 8.54596 18.8806 8.18229 18.9132 7.71702V7.58545C18.9458 6.03699 18.0226 4.63442 16.6186 4.09289C16.1727 3.93703 15.6834 4.18129 15.5202 4.6455C15.368 5.1097 15.6072 5.61814 16.064 5.7828C16.761 6.04806 17.2276 6.7455 17.2276 7.51807V7.55229C17.2069 7.80542 17.282 8.04966 17.4342 8.23759C17.5864 8.42546 17.8148 8.53488 18.0541 8.55809Z" fill="url(#paint0_linear_68_440)"/>
<defs>
<linearGradient id="paint0_linear_68_440" x1="21.8496" y1="21.6001" x2="-3.88584" y2="13.8718" gradientUnits="userSpaceOnUse">
<stop stop-color="#FF4D67"/>
<stop offset="1" stop-color="#FF8A9B"/>
</linearGradient>
</defs>
</svg>
