<svg width="82" height="31" viewBox="0 0 82 31" fill="none" xmlns="http://www.w3.org/2000/svg">
<rect x="0.5" y="0.5" width="81" height="30" rx="15" stroke="#FF4D67"/>
<path d="M36.504 20V11.24H38.136V18.44H41.34V20H36.504ZM42.2453 20V12.98H43.8773V20H42.2453ZM42.0413 11.264C42.0413 10.652 42.4373 10.244 43.0613 10.244C43.6973 10.244 44.0813 10.652 44.0813 11.264C44.0813 11.876 43.6973 12.272 43.0613 12.272C42.4013 12.272 42.0413 11.876 42.0413 11.264ZM44.8703 20V11.12H46.4903V16.364L49.4783 12.98H51.4223L48.7103 16.016L51.5183 20H49.7063L47.6063 16.976L46.4903 18.212V20H44.8703ZM54.7722 20.144C52.5642 20.144 51.0642 18.536 51.0642 16.508C51.0642 14.456 52.6602 12.836 54.7122 12.836C56.8002 12.836 58.3242 14.372 58.3242 16.448V17.06H52.6122C52.8402 18.056 53.6202 18.716 54.7722 18.716C55.6842 18.716 56.3802 18.236 56.7162 17.48L58.0482 18.248C57.4362 19.388 56.3562 20.144 54.7722 20.144ZM54.7122 14.264C53.7402 14.264 52.9842 14.84 52.6962 15.704H56.6802C56.4402 14.756 55.7202 14.264 54.7122 14.264ZM62.278 20.144C60.586 20.144 58.822 18.8 58.822 16.496C58.822 14.168 60.526 12.836 62.302 12.836C63.214 12.836 64.03 13.196 64.546 13.808V11.12H66.178V20H64.558V19.088C64.042 19.748 63.202 20.144 62.278 20.144ZM62.542 18.656C63.754 18.656 64.642 17.684 64.642 16.472C64.642 15.272 63.754 14.312 62.542 14.312C61.342 14.312 60.418 15.26 60.418 16.472C60.418 17.696 61.342 18.656 62.542 18.656Z" fill="#FF4D67"/>
<path fill-rule="evenodd" clip-rule="evenodd" d="M14.2893 15.6882C13.4546 13.0824 14.43 10.104 17.1657 9.22272C18.6048 8.75834 20.1932 9.03214 21.3895 9.93212C22.5213 9.05703 24.168 8.76145 25.6055 9.22272C28.3412 10.104 29.3228 13.0824 28.489 15.6882C27.1899 19.8186 21.3895 23 21.3895 23C21.3895 23 15.6318 19.8668 14.2893 15.6882Z" stroke="#2C2C2C" stroke-opacity="0.6" stroke-linecap="round" stroke-linejoin="round"/>
<path d="M24.5 11.8779C25.3323 12.1471 25.9204 12.8899 25.9911 13.7619" stroke="#2C2C2C" stroke-opacity="0.6" stroke-linecap="round" stroke-linejoin="round"/>
<path fill-rule="evenodd" clip-rule="evenodd" d="M24.7724 8.00013C25.3087 8.00013 25.8442 8.07508 26.3534 8.24434C29.4907 9.25486 30.6212 12.6653 29.6768 15.6464C29.1413 17.1697 28.2659 18.56 27.1192 19.696C25.4779 21.2707 23.6767 22.6686 21.7379 23.8728L21.5254 24L21.3044 23.8644C19.3588 22.6686 17.5475 21.2707 15.8908 19.6876C14.7518 18.5516 13.8755 17.1697 13.3315 15.6464C12.371 12.6653 13.5015 9.25486 16.6728 8.22666C16.9193 8.14245 17.1735 8.0835 17.4285 8.05066H17.5305C17.7693 8.01613 18.0065 8.00013 18.2445 8.00013H18.338C18.8735 8.01613 19.392 8.10876 19.8943 8.27803H19.9444C19.9785 8.29402 20.004 8.31171 20.0209 8.32771C20.2088 8.3875 20.3865 8.45487 20.5564 8.5475L20.8794 8.69065C20.9575 8.73189 21.0451 8.79491 21.1208 8.84936C21.1688 8.88387 21.212 8.91494 21.2449 8.93486C21.2588 8.94297 21.2729 8.95112 21.2871 8.95934C21.36 9.00149 21.4359 9.0454 21.4999 9.09402C22.4443 8.37908 23.5909 7.99171 24.7724 8.00013ZM27.0334 14.0632C27.3819 14.054 27.6794 13.7769 27.7049 13.4224V13.3222C27.7304 12.1424 27.0087 11.0738 25.9114 10.6612C25.5629 10.5424 25.1804 10.7285 25.0529 11.0822C24.9339 11.4359 25.1209 11.8233 25.4779 11.9487C26.0227 12.1508 26.3874 12.6822 26.3874 13.2708V13.2969C26.3712 13.4898 26.4299 13.6759 26.5489 13.819C26.6679 13.9622 26.8464 14.0456 27.0334 14.0632Z" fill="url(#paint0_linear_182_606)"/>
<defs>
<linearGradient id="paint0_linear_182_606" x1="30" y1="24" x2="9.97174" y2="17.83" gradientUnits="userSpaceOnUse">
<stop stop-color="#FF4D67"/>
<stop offset="1" stop-color="#FF8A9B"/>
</linearGradient>
</defs>
</svg>
