<svg width="26" height="26" viewBox="0 0 26 26" fill="none" xmlns="http://www.w3.org/2000/svg">
<path d="M19.5 22.479H6.5C3.8805 22.479 2.4375 21.036 2.4375 18.4165V8.6665C2.4375 6.047 3.8805 4.604 6.5 4.604H19.5C22.1195 4.604 23.5625 6.047 23.5625 8.6665V18.4165C23.5625 21.036 22.1195 22.479 19.5 22.479ZM6.5 6.229C4.79158 6.229 4.0625 6.95809 4.0625 8.6665V18.4165C4.0625 20.1249 4.79158 20.854 6.5 20.854H19.5C21.2084 20.854 21.9375 20.1249 21.9375 18.4165V8.6665C21.9375 6.95809 21.2084 6.229 19.5 6.229H6.5ZM14.1149 14.2771L19.436 10.4074C19.7989 10.1442 19.8792 9.63501 19.6148 9.2721C19.3516 8.91026 18.8447 8.82792 18.4796 9.09334L13.1582 12.963C13.0628 13.0323 12.9361 13.0323 12.8408 12.963L7.51933 9.09334C7.15316 8.82792 6.64741 8.91135 6.38416 9.2721C6.11983 9.63501 6.20004 10.1431 6.56295 10.4074L11.8842 14.2782C12.2178 14.5208 12.6089 14.6411 12.9989 14.6411C13.3889 14.6411 13.7823 14.5198 14.1149 14.2771Z" fill="#808080"/>
</svg>
