<svg width="20" height="19" viewBox="0 0 20 19" fill="none" xmlns="http://www.w3.org/2000/svg">
<path fill-rule="evenodd" clip-rule="evenodd" d="M15.7384 15.0972C13.2935 17.5168 9.67309 18.0396 6.71043 16.6837C6.27307 16.5095 5.91449 16.3687 5.57359 16.3687C4.62409 16.3742 3.44223 17.2853 2.82799 16.6782C2.21375 16.0703 3.13511 14.8998 3.13511 13.9546C3.13511 13.6171 2.99843 13.2687 2.82236 12.835C1.45156 9.9036 1.98059 6.31979 4.42551 3.90087C7.54658 0.811171 12.6173 0.811171 15.7384 3.90007C18.8651 6.99455 18.8595 12.0082 15.7384 15.0972Z" stroke="#2C2C2C" stroke-opacity="0.6" stroke-width="1.5" stroke-linecap="round" stroke-linejoin="round"/>
<path d="M13.2323 9.82715H13.2404" stroke="#2C2C2C" stroke-opacity="0.6" stroke-width="2" stroke-linecap="round" stroke-linejoin="round"/>
<path d="M10.0261 9.82715H10.0342" stroke="#2C2C2C" stroke-opacity="0.6" stroke-width="2" stroke-linecap="round" stroke-linejoin="round"/>
<path d="M6.81824 9.82715H6.82634" stroke="#2C2C2C" stroke-opacity="0.6" stroke-width="2" stroke-linecap="round" stroke-linejoin="round"/>
</svg>
