<svg width="153" height="152" viewBox="0 0 153 152" fill="none" xmlns="http://www.w3.org/2000/svg">
<path d="M93.0023 151.91C85.7733 151.867 78.6238 150.398 71.9627 147.589C65.3016 144.781 59.2596 140.686 54.1823 135.54L3.98228 84.0701C-0.547718 79.5401 -1.31772 72.4301 2.21228 67.5301C4.06325 64.9451 6.82565 63.1583 9.94227 62.5301L13.5623 61.7901L5.18228 53.3901C0.64228 48.8401 -0.127719 41.7301 3.40228 36.8401C4.44887 35.3703 5.79984 34.1432 7.36325 33.2425C8.92666 32.3417 10.6658 31.7883 12.4623 31.6201L15.1223 31.3801L14.1223 28.9001C13.2964 26.9589 12.976 24.8401 13.1911 22.7416C13.4062 20.6431 14.1498 18.6333 15.3523 16.9001C16.4163 15.4126 17.7912 14.1744 19.3816 13.2713C20.9719 12.3682 22.7397 11.8218 24.5623 11.6701C24.9323 11.6701 25.2823 11.6701 25.6323 11.6701C27.2711 11.6709 28.8935 11.9965 30.4057 12.6282C31.9179 13.2598 33.2898 14.1849 34.4423 15.3501L39.4423 20.3501L40.1123 16.6201C40.4127 14.8971 41.0961 13.2636 42.1123 11.8401C43.1763 10.3526 44.5512 9.11436 46.1416 8.21126C47.7319 7.30816 49.4997 6.7618 51.3223 6.61008C51.6623 6.61008 51.9923 6.61008 52.3223 6.61008C53.9594 6.58807 55.5847 6.88944 57.1051 7.49691C58.6255 8.10438 60.0111 9.00601 61.1823 10.1501L123.532 72.5001V47.2601C123.532 39.9401 128.642 33.5901 135.412 32.4901C136.19 32.3672 136.975 32.3037 137.762 32.3001C139.638 32.2948 141.497 32.6598 143.232 33.3741C144.966 34.0883 146.543 35.1379 147.871 36.4626C149.2 37.7873 150.254 39.361 150.973 41.0938C151.692 42.8265 152.062 44.6841 152.062 46.5601V93.1701C152.037 107.366 146.38 120.972 136.332 131L131.042 136.27C126.041 141.25 120.107 145.194 113.58 147.878C107.052 150.562 100.06 151.932 93.0023 151.91ZM12.4523 64.8001C12.1923 64.8001 11.9323 64.8001 11.6723 64.8001C10.2111 64.9172 8.79348 65.3541 7.51988 66.0799C6.24628 66.8057 5.14781 67.8026 4.30227 69.0001C1.50227 72.8901 2.15227 78.6001 5.83227 82.2801L56.0423 133.76C60.7737 138.662 66.4376 142.568 72.7007 145.249C78.9638 147.929 85.6997 149.331 92.5123 149.37H92.6323C106.325 149.373 119.473 144.005 129.252 134.42L134.552 129.15C144.116 119.606 149.509 106.661 149.552 93.1501V46.5601C149.552 44.8587 149.182 43.1778 148.467 41.6339C147.752 40.0901 146.71 38.7204 145.412 37.6201C143.306 35.805 140.613 34.8139 137.832 34.8301C137.162 34.8281 136.493 34.8817 135.832 34.9901C130.272 35.8901 126.072 41.1701 126.072 47.2601V75.5601C126.075 75.8108 126.001 76.0565 125.862 76.2652C125.723 76.4738 125.525 76.6358 125.292 76.7301C125.138 76.7966 124.971 76.8307 124.802 76.8301C124.468 76.8296 124.148 76.6965 123.912 76.4601L59.3923 11.9401C58.4655 11.0058 57.3625 10.2648 56.1471 9.76007C54.9317 9.25539 53.6283 8.99706 52.3123 9.00008H51.5123C50.0511 9.11718 48.6335 9.5541 47.3599 10.2799C46.0863 11.0057 44.9878 12.0026 44.1423 13.2001C41.3823 17.0401 41.9923 22.6901 45.5623 26.3601L45.7423 26.6001L45.8823 26.6901L81.8123 62.6101C81.9873 62.7882 82.1059 63.014 82.1533 63.2592C82.2006 63.5043 82.1747 63.758 82.0786 63.9886C81.9826 64.2191 81.8207 64.4161 81.6133 64.5551C81.4058 64.6942 81.162 64.7689 80.9123 64.7701C80.571 64.7668 80.2445 64.6304 80.0023 64.3901L32.6723 17.1001C31.736 16.1661 30.6237 15.4271 29.3998 14.9258C28.1759 14.4246 26.8648 14.1711 25.5423 14.1801H24.8223C23.3576 14.2943 21.9361 14.7299 20.6588 15.4558C19.3815 16.1817 18.2799 17.1801 17.4323 18.3801C14.6323 22.2701 15.2823 27.9801 18.9523 31.6601L65.8623 78.5701C65.9802 78.6862 66.0738 78.8248 66.1373 78.9777C66.2008 79.1305 66.2331 79.2945 66.2323 79.4601C66.2334 79.6271 66.2012 79.7927 66.1377 79.9472C66.0741 80.1018 65.9805 80.2421 65.8623 80.3601C65.7453 80.4797 65.6052 80.5742 65.4504 80.6379C65.2957 80.7015 65.1296 80.7329 64.9623 80.7301C64.6241 80.7263 64.3009 80.5898 64.0623 80.3501L20.7223 37.0001C19.7974 36.0695 18.6973 35.3315 17.4855 34.8285C16.2737 34.3256 14.9743 34.0678 13.6623 34.0701C13.3858 34.0554 13.1087 34.0554 12.8323 34.0701C11.3735 34.1814 9.95761 34.6149 8.68663 35.3395C7.41564 36.064 6.32123 37.0615 5.48228 38.2601C2.67228 42.1501 3.33229 47.8601 7.00229 51.5401L49.9223 94.4701C50.1676 94.7008 50.3112 95.0196 50.3215 95.3562C50.3318 95.6928 50.208 96.0198 49.9773 96.2651C49.7465 96.5104 49.4278 96.654 49.0912 96.6643C48.7545 96.6747 48.4276 96.5508 48.1823 96.3201L19.5923 67.7201C17.6924 65.8404 15.1249 64.7904 12.4523 64.8001ZM24.0523 142.26C23.9333 142.282 23.8113 142.282 23.6923 142.26C11.6923 138.75 3.75227 130.81 0.0822734 118.66C0.0346666 118.501 0.0189049 118.334 0.0358867 118.169C0.0528685 118.004 0.102269 117.844 0.181242 117.699C0.260214 117.553 0.367209 117.424 0.496092 117.319C0.624974 117.215 0.773203 117.137 0.93228 117.09C1.0515 117.05 1.17649 117.03 1.30227 117.03C1.57326 117.033 1.83644 117.121 2.05389 117.283C2.27134 117.445 2.43184 117.671 2.51228 117.93C5.96228 129.37 13.1223 136.53 24.4023 139.84C24.7239 139.935 24.9948 140.154 25.1559 140.448C25.317 140.742 25.3553 141.088 25.2623 141.41V141.49C25.1617 141.725 24.9923 141.925 24.7764 142.062C24.5605 142.2 24.3081 142.269 24.0523 142.26ZM115.052 25.2601C114.781 25.2603 114.516 25.1741 114.297 25.0142C114.078 24.8542 113.915 24.6286 113.832 24.3701C110.382 12.9301 103.182 5.76008 91.9423 2.46008C91.7812 2.41447 91.631 2.33698 91.5004 2.23219C91.3698 2.12741 91.2617 1.99747 91.1823 1.85008C91.0949 1.70029 91.0408 1.53349 91.0236 1.36095C91.0063 1.18842 91.0263 1.0142 91.0823 0.85008C91.1718 0.599007 91.3375 0.382148 91.5562 0.229768C91.7749 0.0773881 92.0357 -0.00290975 92.3023 8.05874e-05C92.4216 -0.000959948 92.5401 0.0193603 92.6523 0.0600805C104.652 3.57008 112.592 11.5101 116.262 23.6501C116.317 23.8144 116.336 23.9884 116.319 24.1608C116.302 24.3331 116.248 24.4998 116.162 24.6501C116.085 24.7983 115.979 24.9296 115.85 25.0361C115.721 25.1426 115.572 25.2221 115.412 25.2701C115.292 25.282 115.171 25.2787 115.052 25.2601Z" fill="#2C2C2C" fill-opacity="0.6"/>
</svg>
