<svg width="28" height="33" viewBox="0 0 28 33" fill="none" xmlns="http://www.w3.org/2000/svg">
<g clip-path="url(#clip0_24_4726)">
<path fill-rule="evenodd" clip-rule="evenodd" d="M14.1923 32.4183H14.1894C12.5248 32.4168 10.9494 31.6854 9.75411 30.3571C9.3428 29.9025 9.37993 29.1992 9.83726 28.7905C10.2946 28.3788 10.9984 28.4158 11.4097 28.8734C12.1789 29.7278 13.1662 30.1972 14.1908 30.1972H14.1923C15.2213 30.1972 16.2131 29.7278 16.9838 28.8718C17.3966 28.4173 18.1005 28.3803 18.5562 28.7905C19.0136 29.2006 19.0507 29.904 18.6395 30.3586C17.4397 31.6869 15.8612 32.4183 14.1923 32.4183Z" fill="white"/>
<mask id="mask0_24_4726" style="mask-type:luminance" maskUnits="userSpaceOnUse" x="0" y="0" width="28" height="27">
<path fill-rule="evenodd" clip-rule="evenodd" d="M0.534454 0.581299H27.9996V26.2696H0.534454V0.581299Z" fill="white"/>
</mask>
<g mask="url(#mask0_24_4726)">
<path fill-rule="evenodd" clip-rule="evenodd" d="M14.2649 2.80245C9.07532 2.80245 5.45823 6.8568 5.45823 10.495C5.45823 13.5735 4.60148 14.9966 3.84421 16.2522C3.2369 17.2606 2.7573 18.0573 2.7573 19.7883C3.00526 22.5811 4.8539 24.0485 14.2649 24.0485C23.6239 24.0485 25.5304 22.5159 25.7769 19.6921C25.7725 18.0573 25.2928 17.2606 24.6856 16.2522C23.9283 14.9966 23.0715 13.5735 23.0715 10.495C23.0715 6.8568 19.4544 2.80245 14.2649 2.80245ZM14.2649 26.2696C7.32172 26.2696 1.04675 25.781 0.534474 19.8831C0.53002 17.4428 1.2769 16.202 1.93617 15.1092C2.60286 14.0015 3.23095 12.9576 3.23095 10.495C3.23095 5.70772 7.66472 0.581299 14.2649 0.581299C20.865 0.581299 25.2988 5.70772 25.2988 10.495C25.2988 12.9576 25.9269 14.0015 26.5935 15.1092C27.2528 16.202 27.9998 17.4428 27.9998 19.7883C27.4815 25.781 21.208 26.2696 14.2649 26.2696Z" fill="white"/>
</g>
</g>
<defs>
<clipPath id="clip0_24_4726">
<rect width="28" height="33" fill="white"/>
</clipPath>
</defs>
</svg>
