<svg width="26" height="26" viewBox="0 0 26 26" fill="none" xmlns="http://www.w3.org/2000/svg">
<path d="M17.3332 8.9375H9.479V7.58333C9.479 6.65058 9.84631 5.76344 10.5039 5.09611C11.1798 4.42986 12.066 4.0625 12.9998 4.0625C14.6086 4.0625 16.0093 5.14698 16.4058 6.70048C16.5163 7.1349 16.9647 7.39597 17.3926 7.28764C17.8281 7.17605 18.0914 6.73394 17.9798 6.29952C17.4013 4.0256 15.3528 2.4375 12.9998 2.4375C11.637 2.4375 10.3467 2.97054 9.35549 3.94771C8.38699 4.92921 7.854 6.2205 7.854 7.58333V8.99596C5.7545 9.27437 4.604 10.6665 4.604 13V19.5C4.604 22.1195 6.047 23.5625 8.6665 23.5625H17.3332C19.9527 23.5625 21.3957 22.1195 21.3957 19.5V13C21.3957 10.3805 19.9527 8.9375 17.3332 8.9375ZM19.7707 19.5C19.7707 21.2084 19.0416 21.9375 17.3332 21.9375H8.6665C6.95809 21.9375 6.229 21.2084 6.229 19.5V13C6.229 11.2916 6.95809 10.5625 8.6665 10.5625H17.3332C19.0416 10.5625 19.7707 11.2916 19.7707 13V19.5ZM14.3757 15.1667C14.3757 15.613 14.146 15.9901 13.8123 16.236V18.4167C13.8123 18.8652 13.4483 19.2292 12.9998 19.2292C12.5513 19.2292 12.1873 18.8652 12.1873 18.4167V16.2087C11.8753 15.9606 11.6618 15.5946 11.6618 15.1667C11.6618 14.4192 12.2632 13.8125 13.0107 13.8125H13.0215C13.769 13.8125 14.3757 14.4192 14.3757 15.1667Z" fill="#808080"/>
</svg>
