<svg width="16" height="16" viewBox="0 0 16 16" fill="none" xmlns="http://www.w3.org/2000/svg">
<g clip-path="url(#clip0_177_1089)">
<path d="M12.6666 5.3334H5.70261L9.85128 1.18407C10.1119 0.923398 10.1119 0.502065 9.85128 0.241398C9.59061 -0.0192682 9.16928 -0.0192682 8.90861 0.241398L4.11461 5.03607C3.59461 5.5554 3.59461 6.40206 4.11461 6.9214L8.90861 11.7147C9.03861 11.8447 9.20928 11.9101 9.37994 11.9101C9.55061 11.9101 9.72128 11.8447 9.85128 11.7147C10.1119 11.4541 10.1119 11.0327 9.85128 10.7721L5.74528 6.66673H12.6666C13.7693 6.66673 14.6666 7.56406 14.6666 8.66673V15.3334C14.6666 15.7021 14.9653 16.0001 15.3333 16.0001C15.7013 16.0001 15.9999 15.7021 15.9999 15.3334V8.66673C15.9999 6.82873 14.5046 5.3334 12.6666 5.3334Z" fill="#2C2C2C"/>
<path d="M1.72462 6.87483C1.20462 6.35483 1.20462 5.50883 1.72462 4.98883L5.57529 1.13817C5.83595 0.8775 5.83595 0.456167 5.57529 0.1955C5.31462 -0.0651667 4.89329 -0.0651667 4.63262 0.1955L0.781953 4.04617C-0.258047 5.08617 -0.258047 6.77817 0.781953 7.8175L4.63262 11.6682C4.76262 11.7982 4.93329 11.8635 5.10395 11.8635C5.27462 11.8635 5.44529 11.7982 5.57529 11.6682C5.83595 11.4075 5.83595 10.9862 5.57529 10.7255L1.72462 6.87483Z" fill="#2C2C2C"/>
</g>
<defs>
<clipPath id="clip0_177_1089">
<rect width="16" height="16" fill="white"/>
</clipPath>
</defs>
</svg>
