<svg width="48" height="48" viewBox="0 0 48 48" fill="none" xmlns="http://www.w3.org/2000/svg">
<circle cx="24" cy="24" r="24" fill="#3995FF"/>
<g clip-path="url(#clip0_181_604)">
<g clip-path="url(#clip1_181_604)">
<path d="M31.3198 12.3266L11.5785 19.4373C10.6494 19.757 10.04 20.5652 9.98927 21.5472C9.93849 22.5306 10.4606 23.3989 11.4197 23.8373L21.0629 26.7747L24.0862 36.4222C24.5017 37.3141 25.3707 37.8355 26.3541 37.7818C26.9585 37.7496 27.497 37.5043 27.8954 37.1059C28.145 36.8563 28.3388 36.5481 28.4604 36.1919L35.5153 16.5178C35.9516 15.3105 35.6576 13.9952 34.7479 13.0869C33.8395 12.1786 32.5243 11.8889 31.3198 12.3266ZM11.7802 22.8946C11.1701 22.6121 10.977 22.0414 10.9999 21.6008C11.0156 21.3104 11.1286 20.9728 11.3882 20.7132C11.522 20.5795 11.6943 20.4672 11.9118 20.3928C11.9132 20.3914 11.9168 20.3907 11.9189 20.3899L31.6639 13.2786C32.3462 13.0311 33.0535 13.1105 33.6364 13.4831L21.3226 25.797L11.7802 22.8946ZM34.5633 16.1766L27.5063 35.8586C27.2875 36.4937 26.741 36.7469 26.3005 36.7712C25.8599 36.7955 25.2877 36.6039 25.0274 36.056L22.0392 26.5093L34.3524 14.1962C34.7293 14.7791 34.8108 15.49 34.5626 16.1759L34.5633 16.1766Z" fill="white"/>
</g>
</g>
<defs>
<clipPath id="clip0_181_604">
<rect width="32" height="32" fill="white" transform="translate(6 10)"/>
</clipPath>
<clipPath id="clip1_181_604">
<rect width="24.2752" height="24.2752" fill="white" transform="translate(9 21.6699) rotate(-45)"/>
</clipPath>
</defs>
</svg>
