<svg width="87" height="38" viewBox="0 0 87 38" fill="none" xmlns="http://www.w3.org/2000/svg">
<rect width="87" height="38" rx="19" fill="url(#paint0_linear_2020_296)"/>
<path d="M23.648 24.12C21.824 24.12 20.492 23.028 20.492 20.976V15.24H22.124V21.072C22.124 21.936 22.772 22.608 23.636 22.608C24.488 22.608 25.172 21.936 25.172 21.072V15.24H26.804V20.976C26.804 23.028 25.46 24.12 23.648 24.12ZM27.7688 24V16.98H29.3768V17.844C29.8448 17.232 30.5648 16.836 31.4768 16.836C33.2408 16.836 34.2608 17.928 34.2608 19.836V24H32.6168V20.004C32.6168 18.912 32.0888 18.24 31.0328 18.24C30.1088 18.24 29.3888 18.912 29.3888 20.148V24H27.7688ZM39.1105 24.144C38.1505 24.144 37.3225 23.76 36.8065 23.088V24H35.1985V15.12H36.8185V17.868C37.3105 17.244 38.1385 16.836 39.0865 16.836C40.8505 16.836 42.5425 18.168 42.5425 20.496C42.5425 22.8 40.7905 24.144 39.1105 24.144ZM38.8345 22.656C40.0225 22.656 40.9465 21.696 40.9465 20.472C40.9465 19.26 40.0225 18.312 38.8345 18.312C37.6345 18.312 36.7465 19.272 36.7465 20.472C36.7465 21.684 37.6345 22.656 38.8345 22.656ZM43.2141 24V15.12H44.8461V24H43.2141ZM49.1885 24.144C47.1605 24.144 45.5525 22.512 45.5525 20.496C45.5525 18.444 47.1605 16.836 49.1885 16.836C51.2045 16.836 52.8245 18.444 52.8245 20.496C52.8245 22.512 51.2045 24.144 49.1885 24.144ZM49.1885 22.62C50.3405 22.62 51.2285 21.66 51.2285 20.496C51.2285 19.308 50.3405 18.36 49.1885 18.36C48.0245 18.36 47.1485 19.308 47.1485 20.496C47.1485 21.66 48.0245 22.62 49.1885 22.62ZM57.0169 24.144C54.9649 24.144 53.3689 22.512 53.3689 20.496C53.3689 18.444 54.9649 16.836 57.0169 16.836C58.5889 16.836 59.8249 17.736 60.3649 19.008L58.9129 19.62C58.5889 18.852 57.8929 18.36 57.0289 18.36C55.8409 18.36 54.9529 19.308 54.9529 20.496C54.9529 21.66 55.8409 22.62 57.0409 22.62C57.9529 22.62 58.6129 22.08 58.9369 21.312L60.3889 21.936C59.8369 23.232 58.6489 24.144 57.0169 24.144ZM61.0032 24V15.12H62.6232V20.364L65.6112 16.98H67.5552L64.8432 20.016L67.6512 24H65.8392L63.7392 20.976L62.6232 22.212V24H61.0032Z" fill="white"/>
<defs>
<linearGradient id="paint0_linear_2020_296" x1="9.88636" y1="-4.29032" x2="75.7745" y2="25.7643" gradientUnits="userSpaceOnUse">
<stop stop-color="#00BFFF"/>
<stop offset="1" stop-color="#AB5CFF"/>
</linearGradient>
</defs>
</svg>
