<svg width="22" height="22" viewBox="0 0 22 22" fill="none" xmlns="http://www.w3.org/2000/svg">
<g clip-path="url(#clip0_221_754)">
<path fill-rule="evenodd" clip-rule="evenodd" d="M17.9445 17.8932C14.9648 20.8732 10.5525 21.517 6.94174 19.8472C6.4087 19.6326 5.97169 19.4591 5.55622 19.4591C4.39901 19.4659 2.95863 20.5881 2.21001 19.8403C1.46141 19.0916 2.58432 17.6501 2.58432 16.4859C2.58432 16.0704 2.41775 15.6412 2.20316 15.1071C0.532496 11.4969 1.17724 7.08313 4.15699 4.10403C7.96079 0.29882 14.1408 0.29882 17.9445 4.10305C21.7552 7.91414 21.7484 14.0889 17.9445 17.8932Z" stroke="white" stroke-width="1.5" stroke-linecap="round" stroke-linejoin="round"/>
<path d="M15.06 11H15.069" stroke="white" stroke-width="2" stroke-linecap="round" stroke-linejoin="round"/>
<path d="M11.33 11H11.339" stroke="white" stroke-width="2" stroke-linecap="round" stroke-linejoin="round"/>
<path d="M7.5 11H7.509" stroke="white" stroke-width="2" stroke-linecap="round" stroke-linejoin="round"/>
</g>
<defs>
<clipPath id="clip0_221_754">
<rect width="22" height="22" fill="white"/>
</clipPath>
</defs>
</svg>
