<svg width="30" height="30" viewBox="0 0 30 30" fill="none" xmlns="http://www.w3.org/2000/svg">
<g clip-path="url(#clip0_24_4757)">
<path d="M10.133 21.0008H4.08354C1.41175 21.0008 1.52588e-05 19.5891 1.52588e-05 16.9173V10.8643C1.52588e-05 5.36325 4.4604 0.400007 9.73982 0.0254891C12.7745 -0.185688 15.7613 0.922699 17.915 3.07647C20.0758 5.23724 21.19 8.22872 20.9742 11.2855C20.6032 16.5521 15.6376 21.0008 10.133 21.0008ZM10.483 1.16654C10.2637 1.16654 10.0432 1.17471 9.82265 1.19105C5.13009 1.52239 1.16674 5.95244 1.16674 10.8643V16.9173C1.16674 18.9346 2.06628 19.8341 4.08354 19.8341H10.133C15.0484 19.8341 19.4808 15.8824 19.811 11.205C20.0035 8.48539 19.0106 5.8241 17.089 3.90251C15.3319 2.14426 12.9553 1.16654 10.483 1.16654ZM28.0025 24.5022V18.9882C28.0025 15.8404 26.3411 12.7416 23.6658 10.9028C23.401 10.7208 23.0381 10.7885 22.8549 11.0534C22.6729 11.3194 22.7394 11.6822 23.0055 11.8642C25.3681 13.4895 26.8358 16.2173 26.8358 18.9871V24.501C26.8358 26.4284 25.5676 26.8333 24.5024 26.8333H18.9931C16.2233 26.8333 13.4932 25.3655 11.8679 23.0029C11.6847 22.7357 11.3219 22.6704 11.057 22.8524C10.7922 23.0344 10.7245 23.3984 10.9065 23.6633C12.7476 26.3386 15.8453 28 18.9943 28H24.5035C26.6631 28 28.0037 26.6594 28.0037 24.501L28.0025 24.5022Z" fill="white"/>
</g>
<defs>
<clipPath id="clip0_24_4757">
<rect width="30" height="30" fill="white"/>
</clipPath>
</defs>
</svg>
