<svg width="22" height="22" viewBox="0 0 22 22" fill="none" xmlns="http://www.w3.org/2000/svg">
<g clip-path="url(#clip0_220_748)">
<path d="M14.6593 21.5599C12.254 21.5599 9.89267 20.2913 8.48467 18.2526C8.37467 18.0913 8.338 17.9006 8.36733 17.7099C8.404 17.5193 8.50667 17.3579 8.668 17.2479C8.78533 17.1673 8.932 17.1233 9.07867 17.1233C9.31334 17.1233 9.54067 17.2406 9.67267 17.4386C10.8093 19.0959 12.7233 20.1226 14.6593 20.1226H18.7C19.6533 20.1226 20.1153 19.6606 20.1153 18.7073V14.6666C20.1153 12.7306 19.0887 10.8239 17.4313 9.68727C17.27 9.57727 17.1673 9.41594 17.1307 9.22527C17.094 9.03461 17.1307 8.84394 17.248 8.68261C17.38 8.48461 17.6073 8.36727 17.842 8.36727C17.9887 8.36727 18.128 8.41127 18.2527 8.49194C20.2913 9.89261 21.56 12.2613 21.56 14.6666V18.7073C21.56 19.5653 21.2887 20.2839 20.7827 20.7899C20.2767 21.2959 19.558 21.5673 18.7 21.5673H14.6593V21.5599ZM3.72534 16.4266C1.606 16.4266 0.440002 15.2606 0.440002 13.1413V8.70461C0.440002 4.51727 3.83534 0.740608 7.854 0.461941C8.03734 0.447275 8.228 0.439941 8.41134 0.439941C10.5233 0.439941 12.5913 1.29061 14.08 2.77927C15.7227 4.42194 16.5733 6.70261 16.412 9.02727C16.126 13.0386 12.3567 16.4266 8.16934 16.4266H3.73267H3.72534ZM8.41867 1.88461C8.26467 1.88461 8.11067 1.88461 7.95667 1.89927C4.664 2.13394 1.88467 5.24327 1.88467 8.69727V13.1339C1.88467 14.4466 2.42 14.9819 3.73267 14.9819H8.16934C11.6233 14.9819 14.74 12.2099 14.9747 8.92461C15.1067 7.01794 14.4173 5.14794 13.0607 3.79861C11.8213 2.55927 10.1787 1.87727 8.426 1.87727L8.41867 1.88461Z" fill="white"/>
</g>
<defs>
<clipPath id="clip0_220_748">
<rect width="22" height="22" fill="white"/>
</clipPath>
</defs>
</svg>
