<svg width="22" height="22" viewBox="0 0 22 22" fill="none" xmlns="http://www.w3.org/2000/svg">
<g clip-path="url(#clip0_219_746)">
<path d="M14.6593 21.6334C12.232 21.6334 9.8413 20.35 8.42597 18.2967C8.30864 18.1207 8.26464 17.908 8.3013 17.7027C8.33797 17.4974 8.45531 17.314 8.63131 17.1894C8.76331 17.1014 8.91731 17.05 9.07864 17.05C9.34264 17.05 9.58464 17.182 9.73131 17.3947C10.8533 19.03 12.7453 20.042 14.652 20.042H18.6926C19.6093 20.042 20.0346 19.6167 20.0346 18.7V14.6594C20.0346 12.7454 19.0226 10.8607 17.3873 9.7387C17.2113 9.62137 17.094 9.43803 17.0573 9.2327C17.0206 9.02737 17.0573 8.8147 17.182 8.6387C17.3286 8.42603 17.578 8.29403 17.8346 8.29403C17.996 8.29403 18.15 8.34537 18.282 8.43337C20.3426 9.8487 21.6186 12.2394 21.6186 14.6667V18.7074C21.6186 19.58 21.34 20.3207 20.8193 20.8414C20.2986 21.362 19.558 21.6407 18.6853 21.6407H14.6446L14.6593 21.6334ZM3.7253 16.5C1.55464 16.5 0.366638 15.3047 0.366638 13.1414V8.7047C0.366638 4.4807 3.7913 0.674699 7.84664 0.388699C8.0373 0.374033 8.22064 0.366699 8.41131 0.366699C10.5453 0.366699 12.628 1.2247 14.1313 2.72803C15.7886 4.38537 16.6466 6.68803 16.4853 9.0347C16.1993 13.0827 12.3933 16.5 8.16931 16.5H3.73264H3.7253ZM8.41864 1.95803C8.26464 1.95803 8.11064 1.95803 7.96397 1.9727C4.70797 2.20003 1.95797 5.28003 1.95797 8.69737V13.134C1.95797 14.41 2.45664 14.9087 3.73264 14.9087H8.16931C11.5866 14.9087 14.674 12.166 14.9013 8.9247C15.0333 7.04003 14.344 5.19203 13.0093 3.85737C11.7846 2.6327 10.1566 1.95803 8.42597 1.95803H8.41864Z" fill="white"/>
</g>
<defs>
<clipPath id="clip0_219_746">
<rect width="22" height="22" fill="white"/>
</clipPath>
</defs>
</svg>
