<svg width="22" height="22" viewBox="0 0 22 22" fill="none" xmlns="http://www.w3.org/2000/svg">
<g clip-path="url(#clip0_225_831)">
<path fill-rule="evenodd" clip-rule="evenodd" d="M17.4018 8.20689C19.8076 9.37307 21.56 11.979 21.56 14.7973V18.6828C21.56 20.5389 20.5389 21.5601 18.6829 21.5601H14.7912C11.9968 21.5601 9.40824 19.8272 8.23112 17.4415C7.99018 16.8319 7.83807 16.1884 7.79182 15.526C7.77545 15.3625 7.77545 15.1907 7.77545 15.0189V15.0107C7.77545 13.0804 8.52818 11.2645 9.89454 9.89856C11.3836 8.40989 13.4455 7.64102 15.5482 7.78825C16.1881 7.83312 16.8106 7.97788 17.4018 8.20689ZM16.105 6.0644C15.9611 6.0461 15.8164 6.03176 15.6709 6.02148C13.0527 5.84154 10.4836 6.79853 8.63454 8.6471C6.95727 10.3239 6 12.6469 6 15.0271C6 15.2398 6.00818 15.4443 6.02455 15.6569C6.04426 15.9364 6.07898 16.2133 6.12787 16.4867H3.78533C1.666 16.4867 0.5 15.3207 0.5 13.2013V8.75733C0.5 4.57733 3.89533 0.800667 7.914 0.522C8.09733 0.507333 8.288 0.5 8.47133 0.5C10.5833 0.5 12.6513 1.35067 14.14 2.83933C15.0522 3.75152 15.7201 4.86045 16.105 6.0644Z" fill="url(#paint0_linear_225_831)"/>
</g>
<defs>
<linearGradient id="paint0_linear_225_831" x1="19.5" y1="18" x2="6" y2="4" gradientUnits="userSpaceOnUse">
<stop stop-color="#DAC0FE"/>
<stop offset="1" stop-color="#A9E5FE"/>
</linearGradient>
<clipPath id="clip0_225_831">
<rect width="22" height="22" fill="white"/>
</clipPath>
</defs>
</svg>
