<svg width="22" height="22" viewBox="0 0 22 22" fill="none" xmlns="http://www.w3.org/2000/svg">
<g clip-path="url(#clip0_24_10373)">
<path d="M8.14306 19.7714V16.7047C8.14304 15.9246 8.77896 15.2908 9.56686 15.2856H12.453C13.2446 15.2856 13.8864 15.9209 13.8864 16.7047V19.7809C13.8862 20.4432 14.4201 20.9845 15.0889 21H17.013C18.931 21 20.4859 19.4607 20.4859 17.5618V8.83784C20.4756 8.09083 20.1214 7.38935 19.5239 6.93303L12.9436 1.6853C11.7908 0.771567 10.1521 0.771567 8.99926 1.6853L2.44787 6.94256C1.8481 7.39702 1.49323 8.09967 1.48584 8.84736V17.5618C1.48584 19.4607 3.04072 21 4.95875 21H6.8828C7.5682 21 8.12382 20.4499 8.12382 19.7714" stroke="white" stroke-width="1.5" stroke-linecap="round" stroke-linejoin="round"/>
</g>
<defs>
<clipPath id="clip0_24_10373">
<rect width="22" height="22" fill="white"/>
</clipPath>
</defs>
</svg>
