<svg width="22" height="22" viewBox="0 0 22 22" fill="none" xmlns="http://www.w3.org/2000/svg">
<path d="M7.90858 20.3947V17.1038C7.90858 16.2638 8.59632 15.5828 9.44459 15.5828H12.5457C12.9531 15.5828 13.3438 15.743 13.6319 16.0283C13.92 16.3136 14.0818 16.7005 14.0818 17.1038V20.3947C14.0792 20.7439 14.2175 21.0798 14.466 21.3277C14.7145 21.5756 15.0526 21.7149 15.4052 21.7149H17.5209C18.509 21.7174 19.4577 21.3305 20.1572 20.6395C20.8568 19.9486 21.25 19.0103 21.25 18.0318V8.65665C21.25 7.86625 20.8962 7.11651 20.2839 6.60942L13.0867 0.917347C11.8348 -0.0806695 10.0409 -0.0484466 8.82635 0.993879L1.79336 6.60942C1.15218 7.10156 0.768946 7.85353 0.75 8.65665V18.0222C0.75 20.0617 2.41955 21.7149 4.47904 21.7149H6.54642C7.27896 21.7149 7.87429 21.1297 7.8796 20.4043L7.90858 20.3947Z" fill="url(#paint0_linear_24_10375)"/>
<defs>
<linearGradient id="paint0_linear_24_10375" x1="11.1116" y1="20.3044" x2="-2.37214" y2="0.10687" gradientUnits="userSpaceOnUse">
<stop stop-color="#DAC0FE"/>
<stop offset="1" stop-color="#A9E5FE"/>
</linearGradient>
</defs>
</svg>
