<svg width="29" height="29" viewBox="0 0 29 29" fill="none" xmlns="http://www.w3.org/2000/svg">
<path d="M28.327 11.5228C27.8158 11.0189 27.1053 10.7917 26.3924 10.9017C24.0857 11.2497 21.9639 12.1644 20.1478 13.4972C19.9158 10.138 18.5467 6.6242 16.385 3.91995C15.4727 2.77929 13.5273 2.77929 12.615 3.91995C10.4883 6.5807 9.09392 10.167 8.85346 13.496C7.00955 12.1475 4.85025 11.2304 2.50125 10.8981C1.827 10.805 1.16 11.0262 0.667003 11.5131C0.170378 12.0013 -0.0640387 12.6707 0.021753 13.3486C0.977545 20.8946 7.20167 26.5847 14.4988 26.5847C21.7488 26.5847 27.9741 20.9369 28.9783 13.4465C29.0749 12.7263 28.8369 12.0255 28.3258 11.5228H28.327ZM13.5587 4.67274C14.0094 4.10845 14.9906 4.10845 15.4413 4.67274C17.6441 7.42895 18.9624 11.0817 18.9745 14.453C16.8792 16.3489 15.3072 18.8489 14.5024 21.6631C13.6977 18.8429 12.1256 16.3416 10.0268 14.4482C10.04 11.1265 11.391 7.38545 13.5599 4.67274H13.5587ZM1.22163 13.1951C1.18296 12.8942 1.28325 12.5861 1.51525 12.3722C1.82821 12.0835 2.28859 12.0871 2.33209 12.0931C8.729 12.9994 13.5998 18.6459 13.8838 25.3606C7.46267 25.0501 2.07471 19.9243 1.22163 13.1951ZM27.782 13.2857C26.8866 19.9642 21.4987 25.0513 15.1175 25.3606C15.4002 18.6967 20.2299 13.0513 26.5713 12.0967C26.628 12.0883 27.1875 12.0255 27.4787 12.3843C27.689 12.6429 27.8267 12.9462 27.7808 13.2857H27.782Z" fill="white"/>
</svg>
