<svg width="22" height="22" viewBox="0 0 22 22" fill="none" xmlns="http://www.w3.org/2000/svg">
<path fill-rule="evenodd" clip-rule="evenodd" d="M11 21.9001C9.79999 21.9001 8.65999 21.3501 7.78999 20.3501C7.51999 20.0401 7.53999 19.5601 7.83999 19.2901C7.96999 19.1701 8.14999 19.1001 8.31999 19.1001C8.51999 19.1001 8.71999 19.1901 8.85999 19.3501C9.44999 20.0301 10.21 20.4001 10.99 20.4001C11.77 20.4001 12.54 20.0301 13.13 19.3501C13.27 19.1901 13.46 19.1001 13.67 19.1001C13.85 19.1001 14.02 19.1701 14.15 19.2901C14.45 19.5701 14.47 20.0401 14.2 20.3501C13.33 21.3501 12.19 21.8901 10.98 21.8901L11 21.9001Z" fill="white"/>
<path fill-rule="evenodd" clip-rule="evenodd" d="M11 17.7201C6.25001 17.7201 1.95001 17.3901 1.60001 13.3801C1.60001 11.7201 2.11001 10.8801 2.56001 10.1301C3.03001 9.3501 3.47001 8.6101 3.47001 6.8801C3.47001 3.6001 6.49001 0.100098 11 0.100098C15.51 0.100098 18.53 3.6001 18.53 6.8801C18.53 8.6201 18.97 9.3501 19.44 10.1301C19.89 10.8801 20.4 11.7201 20.4 13.3201C20.05 17.3801 15.75 17.7201 11 17.7201ZM11 1.4401C7.35001 1.4401 4.81001 4.3001 4.81001 6.8801C4.81001 8.9901 4.22001 9.9601 3.71001 10.8201C3.28001 11.5301 2.94001 12.1001 2.94001 13.3201C3.12001 15.3501 4.42001 16.3801 11 16.3801C17.58 16.3801 18.89 15.2901 19.06 13.2701C19.06 12.1001 18.72 11.5401 18.29 10.8201C17.77 9.9601 17.19 8.9901 17.19 6.8801C17.19 4.3101 14.65 1.4401 11 1.4401Z" fill="white"/>
</svg>
