<svg width="30" height="29" viewBox="0 0 30 29" fill="none" xmlns="http://www.w3.org/2000/svg">
<path fill-rule="evenodd" clip-rule="evenodd" d="M14.622 18.5432C9.9809 18.5432 6.01747 19.2498 6.01747 22.0796C6.01747 24.9094 9.95575 25.6413 14.622 25.6413C19.2631 25.6413 23.2254 24.9336 23.2254 22.1049C23.2254 19.2763 19.2883 18.5432 14.622 18.5432Z" fill="url(#paint0_linear_2001_274)"/>
<path fill-rule="evenodd" clip-rule="evenodd" d="M14.6218 14.5075C17.6676 14.5075 20.1361 12.0206 20.1361 8.9537C20.1361 5.88685 17.6676 3.40112 14.6218 3.40112C11.5761 3.40112 9.10639 5.88685 9.10639 8.9537C9.0961 12.0102 11.5487 14.4971 14.583 14.5075H14.6218Z" fill="url(#paint1_linear_2001_274)"/>
<defs>
<linearGradient id="paint0_linear_2001_274" x1="20.2476" y1="24.1531" x2="16.8742" y2="15.2314" gradientUnits="userSpaceOnUse">
<stop stop-color="#A9E5FE"/>
<stop offset="1" stop-color="#DAC0FE"/>
</linearGradient>
<linearGradient id="paint1_linear_2001_274" x1="18.2274" y1="12.1789" x2="10.2751" y2="3.56336" gradientUnits="userSpaceOnUse">
<stop stop-color="#A9E5FE"/>
<stop offset="1" stop-color="#DAC0FE"/>
</linearGradient>
</defs>
</svg>
