<svg width="22" height="22" viewBox="0 0 22 22" fill="none" xmlns="http://www.w3.org/2000/svg">
<path d="M11 19.8456C5.52273 19.8456 0.857216 15.5821 0.136526 9.92282C0.0682501 9.37661 0.257905 8.83799 0.659974 8.44351C0.993767 8.10971 1.43377 7.92764 1.89653 7.92764C1.97997 7.92764 2.05584 7.92764 2.13928 7.94282C3.70963 8.16282 5.24963 8.76213 6.59239 9.67247C6.60756 9.68006 6.62273 9.68764 6.6379 9.68764C6.64549 9.68764 6.66066 9.68764 6.66825 9.68764C6.69101 9.67247 6.70618 9.64971 6.71377 9.62695C6.96411 7.2373 8.01101 4.70351 9.49791 2.84489C9.84687 2.40489 10.4007 2.15454 11.0076 2.15454C11.6145 2.15454 12.1682 2.40489 12.5172 2.84489C14.042 4.74902 15.051 7.22213 15.3014 9.62695C15.3014 9.6573 15.3241 9.68006 15.3469 9.68764C15.3545 9.68764 15.3696 9.68764 15.3772 9.68764C15.3924 9.68764 15.4076 9.68764 15.4227 9.67247C16.7427 8.7773 18.2524 8.18557 19.7924 7.9504C19.891 7.93523 19.982 7.92764 20.0731 7.92764C20.551 7.92764 21.0062 8.10971 21.3476 8.45109C21.7572 8.85316 21.9469 9.42213 21.871 9.99868C21.12 15.6125 16.4469 19.8456 11.0076 19.8456H11ZM1.9648 9.11868C1.9648 9.11868 1.66894 9.11868 1.48687 9.28558C1.35032 9.40695 1.28963 9.58144 1.31239 9.77109C1.91928 14.558 5.69722 18.2904 10.2945 18.6318C10.2945 18.6318 10.3324 18.6318 10.3476 18.609C10.3627 18.5939 10.3703 18.5711 10.3703 18.5483C10.0593 13.7311 6.51653 9.76351 1.95722 9.11868C1.95722 9.11868 1.95722 9.11868 1.94963 9.11868H1.9648ZM20.0503 9.11868C19.9972 9.11868 19.9669 9.11868 19.9517 9.11868C15.4379 9.80144 11.9255 13.7614 11.6145 18.5483C11.6145 18.5711 11.6145 18.5939 11.6372 18.609C11.6524 18.6242 11.6676 18.6318 11.6903 18.6318C16.2572 18.2904 20.0427 14.5883 20.68 9.83937C20.7027 9.6573 20.642 9.47523 20.4903 9.28558C20.3765 9.14144 20.1641 9.11868 20.0503 9.11868ZM11 3.32282C10.7648 3.32282 10.5448 3.42144 10.4158 3.58075C8.86066 5.5304 7.86687 8.23109 7.83653 10.6283C9.23997 11.9559 10.302 13.5718 10.9317 15.3621C10.9393 15.3925 10.9696 15.4152 11.0076 15.4152C11.0076 15.4152 11.0682 15.3925 11.0834 15.3621C11.7131 13.5718 12.7676 11.9635 14.1482 10.689C14.1407 8.20075 13.1772 5.56075 11.5917 3.58075C11.4627 3.42144 11.2427 3.32282 11.0076 3.32282H11Z" fill="white"/>
</svg>
