<svg width="22" height="22" viewBox="0 0 22 22" fill="none" xmlns="http://www.w3.org/2000/svg">
<path fill-rule="evenodd" clip-rule="evenodd" d="M10.0704 19.7475C5.01508 19.2852 0.841989 15.1951 0.163656 9.86837C0.0953802 9.32217 0.285035 8.78355 0.687104 8.38906C1.0209 8.06286 1.4609 7.88079 1.92366 7.88079H1.92366C2.00711 7.88079 2.08297 7.88079 2.16641 7.89596C3.36103 8.06332 3.90597 8.41508 4.68951 8.9746C7.42434 11.345 9.33884 14.7234 9.9299 18.5459C5.51471 18.0182 1.93635 14.3717 1.34712 9.72418C1.34086 9.68506 1.33879 9.64658 1.34059 9.60908C1.33878 9.6466 1.34084 9.68509 1.3471 9.72424C1.93634 14.3718 5.5147 18.0182 9.9299 18.5459C9.99113 18.9419 10.0382 19.3427 10.0704 19.7475ZM17.3321 8.9971C18.1042 8.43856 18.625 8.07606 19.8043 7.89596C19.903 7.88079 19.994 7.88079 20.085 7.88079C20.563 7.88079 21.0181 8.06286 21.3595 8.39665C21.7692 8.8063 21.9588 9.36768 21.883 9.94424C21.1759 15.2294 17.0329 19.2908 11.9797 19.7482C12.0115 19.3433 12.0583 18.9425 12.1195 18.5463C15.0756 18.1926 17.665 16.4358 19.2295 13.915C17.665 16.4358 15.0755 18.1926 12.1195 18.5462C12.706 14.7451 14.6125 11.3709 17.3321 8.9971ZM15.1699 8.57026C13.3793 10.408 11.9935 12.6374 11.146 15.0909C11.123 15.1372 11.077 15.1719 11.0309 15.1719C11.0309 15.1719 10.9389 15.1372 10.9273 15.0909C10.0736 12.649 8.69578 10.4198 6.8926 8.52719C7.30024 6.46423 8.24493 4.37351 9.51745 2.78286C9.86642 2.35044 10.4202 2.1001 11.0271 2.1001C11.634 2.1001 12.1878 2.35044 12.5368 2.78286C13.8453 4.42506 14.7814 6.49045 15.1699 8.57026ZM20.7139 9.71663C20.7132 9.73941 20.7109 9.76217 20.7071 9.78493L20.7071 9.78487C20.7109 9.76213 20.7131 9.73939 20.7139 9.71663Z" fill="url(#paint0_linear_225_849)"/>
<defs>
<linearGradient id="paint0_linear_225_849" x1="15.2087" y1="18.5615" x2="7.60189" y2="6.2653" gradientUnits="userSpaceOnUse">
<stop stop-color="#DAC0FE"/>
<stop offset="1" stop-color="#A9E5FE"/>
</linearGradient>
</defs>
</svg>
