<svg width="36" height="36" viewBox="0 0 36 36" fill="none" xmlns="http://www.w3.org/2000/svg">
<path fill-rule="evenodd" clip-rule="evenodd" d="M18.0009 14.25C20.0722 14.25 21.7508 15.9286 21.7508 17.9999C21.7508 20.0713 20.0722 21.75 18.0009 21.75C15.9295 21.75 14.2509 20.0713 14.2509 17.9999C14.2509 15.9286 15.9295 14.25 18.0009 14.25Z" stroke="#2C2C2C" stroke-width="1.5" stroke-linecap="round" stroke-linejoin="round"/>
<path fill-rule="evenodd" clip-rule="evenodd" d="M30.2529 10.8754C29.2275 9.08699 26.9577 8.47505 25.1837 9.50778C23.6404 10.4042 21.712 9.28257 21.712 7.48827C21.712 5.42428 20.0497 3.75 18.0005 3.75C15.9513 3.75 14.289 5.42428 14.289 7.48827C14.289 9.28257 12.3605 10.4042 10.8188 9.50778C9.04328 8.47505 6.77345 9.08699 5.74813 10.8754C4.72428 12.6637 5.33182 14.95 7.10738 15.9813C8.64904 16.8791 8.64904 19.1209 7.10738 20.0188C5.33182 21.0515 4.72428 23.3377 5.74813 25.1246C6.77345 26.9131 9.04328 27.5249 10.8174 26.4937H10.8188C12.3605 25.5958 14.289 26.7174 14.289 28.5117C14.289 30.5757 15.9513 32.2501 18.0005 32.2501C20.0497 32.2501 21.712 30.5757 21.712 28.5117C21.712 26.7174 23.6404 25.5958 25.1837 26.4937C26.9577 27.5249 29.2275 26.9131 30.2529 25.1246C31.2782 23.3377 30.6692 21.0515 28.895 20.0188H28.8936C27.3519 19.1209 27.3519 16.8791 28.895 15.9813C30.6692 14.95 31.2782 12.6637 30.2529 10.8754Z" stroke="#2C2C2C" stroke-width="1.5" stroke-linecap="round" stroke-linejoin="round"/>
</svg>
