<svg width="36" height="36" viewBox="0 0 36 36" fill="none" xmlns="http://www.w3.org/2000/svg">
<path d="M10.5 32.148C7.14 32.148 5.36 30.368 5.36 27.008V12.008C5.36 8.64798 7.14 6.86798 10.5 6.86798H11.35V6.41798C11.3505 6.05631 11.4273 5.69882 11.5755 5.36889C11.7236 5.03895 11.9397 4.744 12.2097 4.50331C12.4796 4.26263 12.7973 4.08162 13.142 3.97214C13.4867 3.86266 13.8506 3.82717 14.21 3.86798H21.71C22.0694 3.82717 22.4333 3.86266 22.778 3.97214C23.1227 4.08162 23.4404 4.26263 23.7103 4.50331C23.9803 4.744 24.1964 5.03895 24.3445 5.36889C24.4927 5.69882 24.5695 6.05631 24.57 6.41798V6.86798H25.5C28.86 6.86798 30.64 8.64798 30.64 12.008V27.008C30.64 30.368 28.86 32.148 25.5 32.148H10.5ZM10.5 8.14798C7.87 8.14798 6.64 9.37798 6.64 12.008V27.008C6.64 29.638 7.87 30.868 10.5 30.868H25.5C28.13 30.868 29.36 29.638 29.36 27.008V12.008C29.36 9.37798 28.13 8.14798 25.5 8.14798H24.65V8.59798C24.6495 8.95964 24.5727 9.31713 24.4245 9.64707C24.2764 9.977 24.0603 10.272 23.7903 10.5126C23.5204 10.7533 23.2027 10.9343 22.858 11.0438C22.5133 11.1533 22.1494 11.1888 21.79 11.148H14.29C13.9306 11.1888 13.5667 11.1533 13.222 11.0438C12.8773 10.9343 12.5596 10.7533 12.2897 10.5126C12.0197 10.272 11.8036 9.977 11.6555 9.64707C11.5073 9.31713 11.4305 8.95964 11.43 8.59798V8.14798H10.5ZM14.25 5.14798C13.09 5.14798 12.64 5.59798 12.64 6.75798V8.25798C12.64 9.41798 13.09 9.86798 14.25 9.86798H21.75C22.91 9.86798 23.36 9.41798 23.36 8.25798V6.75798C23.36 5.59798 22.91 5.14798 21.75 5.14798H14.25ZM13.5 24.648C13.3303 24.648 13.1675 24.5805 13.0475 24.4605C12.9274 24.3405 12.86 24.1777 12.86 24.008C12.86 23.8382 12.9274 23.6755 13.0475 23.5554C13.1675 23.4354 13.3303 23.368 13.5 23.368H19.5C19.6697 23.368 19.8325 23.4354 19.9525 23.5554C20.0726 23.6755 20.14 23.8382 20.14 24.008C20.14 24.1777 20.0726 24.3405 19.9525 24.4605C19.8325 24.5805 19.6697 24.648 19.5 24.648H13.5ZM13.5 18.648C13.3303 18.648 13.1675 18.5806 13.0475 18.4605C12.9274 18.3405 12.86 18.1777 12.86 18.008C12.86 17.8382 12.9274 17.6755 13.0475 17.5554C13.1675 17.4354 13.3303 17.368 13.5 17.368H22.5C22.6697 17.368 22.8325 17.4354 22.9525 17.5554C23.0726 17.6755 23.14 17.8382 23.14 18.008C23.14 18.1777 23.0726 18.3405 22.9525 18.4605C22.8325 18.5806 22.6697 18.648 22.5 18.648H13.5Z" fill="#2C2C2C" stroke="#2C2C2C" stroke-width="0.2"/>
</svg>
