<svg width="32" height="32" viewBox="0 0 32 32" fill="none" xmlns="http://www.w3.org/2000/svg">
<path d="M15.95 29.9999C13.1853 29.99 10.4855 29.1618 8.19086 27.6197C5.89625 26.0775 4.10959 23.8905 3.05617 21.3344C2.00275 18.7783 1.72972 15.9675 2.2715 13.2565C2.81329 10.5454 4.14563 8.05543 6.10055 6.10051C8.05547 4.14559 10.5454 2.81325 13.2565 2.27146C15.9676 1.72967 18.7784 2.00271 21.3345 3.05613C23.8906 4.10955 26.0776 5.8962 27.6197 8.19081C29.1618 10.4854 29.9901 13.1853 30 15.9499C29.9973 19.6754 28.5162 23.2475 25.8819 25.8818C23.2476 28.5162 19.6754 29.9973 15.95 29.9999ZM15.95 3.32992C13.7095 3.3346 11.5105 3.93424 9.57779 5.06751C7.64509 6.20077 6.04804 7.82701 4.94996 9.77992V9.84992V9.94992C4.82996 15.4199 7.94996 16.9499 9.81996 17.9499C10.64 18.3599 11.23 18.6599 11.37 19.2599C11.4827 19.8159 11.5097 20.3858 11.45 20.9499C11.45 21.3799 11.45 21.8599 11.45 22.6099C11.45 23.3599 11.92 23.4999 12.93 24.0299C13.7178 24.3724 14.4059 24.9092 14.93 25.5899C15.3776 26.4002 15.5595 27.3307 15.45 28.2499V28.5499H15.92C16.6918 28.5487 17.4619 28.4751 18.22 28.3299H18.4V28.1499C18.8761 26.4913 19.8585 25.0229 21.21 23.9499C21.89 23.3099 22.42 22.7999 22.5 22.2899C22.5165 22.2169 22.516 22.1411 22.4987 22.0683C22.4814 21.9955 22.4476 21.9276 22.4 21.8699C21.7492 21.2952 20.9178 20.9662 20.05 20.9399C19.5404 20.8554 19.0675 20.6209 18.6917 20.2665C18.3159 19.912 18.0542 19.4537 17.94 18.9499C17.7725 18.4994 17.5252 18.0827 17.21 17.7199C17.0306 17.476 16.7953 17.2788 16.5238 17.1448C16.2523 17.0108 15.9526 16.9439 15.65 16.9499C15.2516 16.9652 14.8544 17.0019 14.46 17.0599C14.0618 17.1088 13.6611 17.1355 13.26 17.1399C11.8 17.1399 10.85 16.6799 10.43 15.7599C10.283 15.4067 10.1952 15.0317 10.17 14.6499C10.1643 14.4075 10.1059 14.1692 9.99883 13.9516C9.89176 13.734 9.73859 13.5423 9.54996 13.3899C9.30724 13.1681 9.13031 12.8837 9.03858 12.5679C8.94685 12.2522 8.94387 11.9173 9.02996 11.5999C9.14009 11.2748 9.32647 10.9807 9.57352 10.7424C9.82056 10.5041 10.1211 10.3283 10.45 10.2299C10.5595 10.2152 10.6705 10.2152 10.78 10.2299C11.3834 10.2975 11.9625 10.5065 12.47 10.8399C12.7775 11.044 13.1149 11.1992 13.47 11.2999C13.99 11.1899 14.06 10.7399 14.08 9.35992C14.08 7.72992 14.13 5.48992 16.69 4.64992C17.0865 4.51802 17.4347 4.27081 17.69 3.93992L17.99 3.53992L17.5 3.47992C16.9866 3.39996 16.4691 3.34987 15.95 3.32992ZM3.49996 13.9499C3.39183 14.6112 3.335 15.2799 3.32996 15.9499C3.32756 18.9127 4.37013 21.7814 6.27422 24.0513C8.17831 26.3212 10.8219 27.8469 13.74 28.3599L14.05 28.4099V28.0999C14.1194 27.5149 14.0224 26.9222 13.77 26.3899C13.3577 25.9079 12.8367 25.5309 12.25 25.2899C11.25 24.7799 10.07 24.1499 9.99996 22.6699C9.9691 22.0703 9.9691 21.4695 9.99996 20.8699C10.0454 20.5013 10.0454 20.1285 9.99996 19.7599V19.6399L9.88996 19.5699C9.72996 19.4699 9.42996 19.3199 9.17996 19.1899C8.01223 18.7133 6.95456 18.0025 6.07224 17.1012C5.18992 16.2 4.50166 15.1275 4.04996 13.9499H3.49996ZM10.5 12.2399L10.61 12.3599C11.2106 12.9065 11.5701 13.6688 11.61 14.4799C11.6178 14.7096 11.6651 14.9363 11.75 15.1499C11.91 15.4999 12.42 15.6699 13.27 15.6699C13.6043 15.6655 13.9382 15.6421 14.27 15.5999C14.7106 15.5355 15.1548 15.4988 15.6 15.4899C16.0992 15.4836 16.5936 15.589 17.0469 15.7983C17.5002 16.0077 17.901 16.3157 18.22 16.6999C18.6484 17.1863 18.987 17.745 19.22 18.3499C19.58 19.1499 19.72 19.3499 20.22 19.4199C21.4807 19.5016 22.6667 20.0465 23.55 20.9499C23.7119 21.1667 23.8282 21.414 23.8918 21.677C23.9554 21.94 23.965 22.2131 23.92 22.4799C23.6315 23.4689 23.0275 24.3363 22.2 24.9499C21.4309 25.6106 20.7814 26.3988 20.28 27.2799L19.94 27.9599L20.64 27.6699C22.5809 26.8982 24.2988 25.6546 25.638 24.0517C26.9773 22.4488 27.8956 20.5372 28.31 18.4899L28.52 17.4899L27.83 18.2699C27.6861 18.4412 27.5073 18.5798 27.3055 18.6764C27.1037 18.773 26.8836 18.8253 26.66 18.8299H26.51C25.62 18.7299 24.77 17.8299 23.69 15.8299C23.2393 15.1013 23.0006 14.2616 23.0006 13.4049C23.0006 12.5482 23.2393 11.7085 23.69 10.9799C23.838 10.6778 23.9682 10.3672 24.08 10.0499C24.38 9.15992 23.51 6.44992 22.85 5.43992C21.8922 4.81801 20.8521 4.3333 19.76 3.99992L19.52 3.92992L19.42 4.16992C19.1942 4.60478 18.8801 4.98773 18.4978 5.29424C18.1156 5.60075 17.6735 5.82407 17.2 5.94992C15.72 6.43992 15.6 7.54992 15.57 9.31992C15.57 10.6399 15.57 12.3199 13.85 12.6399H13.55C12.9307 12.5733 12.337 12.3571 11.82 12.0099C11.5116 11.812 11.1742 11.6635 10.82 11.5699L10.5 12.2399ZM25.45 8.44992C25.6075 9.10727 25.6075 9.79256 25.45 10.4499C25.3221 10.8188 25.1718 11.1794 25 11.5299C24.6515 12.06 24.4659 12.6805 24.4659 13.3149C24.4659 13.9493 24.6515 14.5698 25 15.0999C25.3489 15.8926 25.8404 16.6146 26.45 17.2299L26.65 17.3899L26.83 17.1999C27.251 16.7872 27.7765 16.4969 28.35 16.3599L28.57 16.3099V15.9499C28.575 13.1462 27.6343 10.4228 25.9 8.21992L25.45 8.44992Z" fill="#2C2C2C"/>
</svg>
