<svg width="32" height="32" viewBox="0 0 32 32" fill="none" xmlns="http://www.w3.org/2000/svg">
<path d="M15.5676 29.735C11.8121 29.7377 8.20881 28.2504 5.54853 25.5995C2.88825 22.9485 1.38824 19.3506 1.37765 15.595C1.37795 15.4981 1.39757 15.4021 1.43534 15.3129C1.47311 15.2236 1.52829 15.1427 1.59765 15.075C1.66643 15.0058 1.74822 14.9508 1.83832 14.9133C1.92842 14.8758 2.02505 14.8565 2.12265 14.8565C2.22024 14.8565 2.31687 14.8758 2.40697 14.9133C2.49707 14.9508 2.57887 15.0058 2.64765 15.075C2.71566 15.1432 2.76928 15.2244 2.80536 15.3137C2.84143 15.403 2.85921 15.4987 2.85765 15.595C2.85615 18.5322 3.87275 21.379 5.73436 23.6509C7.59597 25.9228 10.1875 27.4791 13.0676 28.055C13.8836 28.2228 14.7146 28.3065 15.5476 28.305C18.2711 28.3002 20.9207 27.4194 23.105 25.7928C25.2893 24.1661 26.8923 21.8799 27.6771 19.272C28.462 16.6641 28.387 13.8729 27.4633 11.3109C26.5396 8.7489 24.8161 6.55204 22.5476 5.04499C20.474 3.66448 18.0388 2.92698 15.5476 2.92499C15.1276 2.92499 14.6976 2.92499 14.2676 2.98499C11.3459 3.28821 8.61862 4.59177 6.54765 6.67499L5.95765 7.26499L6.75765 7.47499H6.93765H10.6776C10.7792 7.47904 10.8788 7.50426 10.9701 7.54903C11.0614 7.5938 11.1423 7.65714 11.2076 7.73499C11.2769 7.80377 11.3318 7.88557 11.3693 7.97567C11.4068 8.06577 11.4261 8.1624 11.4261 8.25999C11.4261 8.35759 11.4068 8.45422 11.3693 8.54432C11.3318 8.63442 11.2769 8.71621 11.2076 8.78499C11.1394 8.853 11.0583 8.90663 10.9689 8.9427C10.8796 8.97877 10.784 8.99655 10.6876 8.99499H7.00765C6.16426 8.99499 5.35541 8.65996 4.75905 8.06359C4.16268 7.46723 3.82765 6.65838 3.82765 5.81499V2.14499C3.82937 1.9494 3.90847 1.76244 4.04765 1.62499C4.18187 1.49546 4.36112 1.42307 4.54765 1.42307C4.73418 1.42307 4.91343 1.49546 5.04765 1.62499C5.18682 1.76244 5.26592 1.9494 5.26765 2.14499V5.73499L6.06765 5.01499C7.77707 3.47654 9.83504 2.37695 12.0641 1.81103C14.2932 1.24511 16.6264 1.22984 18.8627 1.76655C21.099 2.30325 23.1711 3.37582 24.9005 4.89177C26.6299 6.40772 27.9647 8.32156 28.7897 10.4683C29.6147 12.615 29.9051 14.9301 29.6361 17.2141C29.367 19.4981 28.5464 21.6823 27.2451 23.5786C25.9438 25.4748 24.2009 27.026 22.1665 28.0985C20.1321 29.1711 17.8674 29.7327 15.5676 29.735Z" fill="#2C2C2C" stroke="#2C2C2C" stroke-width="0.2"/>
<path d="M19.2077 19.9852C19.0147 19.9705 18.8352 19.8807 18.7077 19.7352L15.0477 16.0752C14.9783 16.0075 14.9231 15.9266 14.8853 15.8373C14.8476 15.7481 14.828 15.6522 14.8277 15.5552V9.48521C14.8278 9.28637 14.907 9.09573 15.0477 8.95521C15.1159 8.8872 15.1971 8.83357 15.2864 8.7975C15.3757 8.76143 15.4713 8.74365 15.5677 8.74521C15.761 8.74832 15.9464 8.82317 16.0877 8.95521C16.2284 9.09573 16.3075 9.28637 16.3077 9.48521V15.2852L19.7577 18.7352C19.8861 18.878 19.9573 19.0632 19.9577 19.2552C19.9526 19.4472 19.8741 19.63 19.7382 19.7658C19.6024 19.9016 19.4197 19.9802 19.2277 19.9852H19.2077Z" fill="#2C2C2C" stroke="#2C2C2C" stroke-width="0.2"/>
</svg>
