<svg width="29" height="29" viewBox="0 0 29 29" fill="none" xmlns="http://www.w3.org/2000/svg">
<g clip-path="url(#clip0_24_6354)">
<path d="M21.245 11.6105C21.3541 10.1213 21.1428 8.62595 20.6253 7.22526C20.1078 5.82458 19.2962 4.55106 18.245 3.49051C17.2786 2.53001 16.1315 1.77039 14.87 1.25549C13.6085 0.740584 12.2575 0.480591 10.895 0.490508H10.135C4.90501 0.860508 0.485008 5.78051 0.485008 11.2305V17.3205C0.485008 18.3814 0.906435 19.3988 1.65658 20.1489C2.40673 20.8991 3.42414 21.3205 4.48501 21.3205H9.89501C15.845 21.2605 20.855 17.0205 21.245 11.6105ZM9.81501 19.7805H4.40501C3.75773 19.7648 3.14224 19.4967 2.69004 19.0333C2.23785 18.5699 1.98482 17.948 1.98501 17.3005V11.2105C1.98501 6.51051 5.77501 2.27051 10.265 1.95051H10.895C12.1241 1.94714 13.3406 2.1978 14.4682 2.68677C15.5958 3.17574 16.6102 3.89246 17.4477 4.79197C18.2853 5.69148 18.9279 6.75437 19.3352 7.91396C19.7426 9.07355 19.906 10.3048 19.815 11.5305C19.445 16.0705 14.985 19.7805 9.81501 19.7805Z" fill="#2C2C2C"/>
<path d="M11.425 5.38042C10.9691 5.29996 10.5011 5.32003 10.0538 5.43921C9.60642 5.55839 9.19048 5.77381 8.83502 6.07042C8.48035 6.36592 8.19521 6.736 7.99989 7.15428C7.80458 7.57257 7.7039 8.02878 7.70502 8.49042C7.70502 8.68668 7.78298 8.8749 7.92176 9.01368C8.06054 9.15245 8.24876 9.23042 8.44502 9.23042C8.64128 9.23042 8.8295 9.15245 8.96828 9.01368C9.10705 8.8749 9.18502 8.68668 9.18502 8.49042C9.18667 8.24318 9.24256 7.99931 9.34873 7.77602C9.4549 7.55273 9.60877 7.35546 9.79949 7.19811C9.99021 7.04077 10.2131 6.92719 10.4525 6.86539C10.6919 6.80358 10.942 6.79506 11.185 6.84042C11.5162 6.90554 11.8204 7.06775 12.0591 7.30638C12.2977 7.54502 12.4599 7.84928 12.525 8.18042C12.5932 8.52791 12.5484 8.88809 12.3973 9.20834C12.2462 9.52859 11.9966 9.79211 11.685 9.96042C11.247 10.1313 10.8676 10.4252 10.5926 10.8066C10.3177 11.188 10.1587 11.6408 10.135 12.1104C10.135 12.3076 10.2126 12.4969 10.3511 12.6372C10.4896 12.7776 10.6778 12.8578 10.875 12.8604C11.0713 12.8604 11.2595 12.7825 11.3983 12.6437C11.5371 12.5049 11.615 12.3167 11.615 12.1204C11.615 11.7204 11.945 11.5104 12.405 11.2604C12.9781 10.9432 13.4384 10.4558 13.7224 9.86562C14.0064 9.2754 14.0999 8.61152 13.9901 7.96581C13.8803 7.3201 13.5725 6.72447 13.1094 6.2613C12.6463 5.79813 12.0507 5.49031 11.405 5.38042H11.425Z" fill="#2C2C2C"/>
<path d="M10.865 14.9502C10.6672 14.9502 10.4739 15.0088 10.3094 15.1187C10.145 15.2286 10.0168 15.3848 9.94113 15.5675C9.86545 15.7502 9.84564 15.9513 9.88423 16.1453C9.92281 16.3393 10.0181 16.5175 10.1579 16.6573C10.2978 16.7972 10.4759 16.8924 10.6699 16.931C10.8639 16.9696 11.065 16.9498 11.2477 16.8741C11.4304 16.7984 11.5866 16.6702 11.6965 16.5058C11.8064 16.3413 11.865 16.148 11.865 15.9502C11.865 15.685 11.7597 15.4306 11.5721 15.2431C11.3846 15.0556 11.1302 14.9502 10.865 14.9502Z" fill="#2C2C2C"/>
<path d="M24.725 11.8903L24.585 11.7803V11.9603C24.5512 12.4536 24.4878 12.9445 24.395 13.4303V13.4803C25.2194 14.2032 25.8804 15.0935 26.3339 16.0919C26.7874 17.0902 27.023 18.1738 27.025 19.2703V25.3803C27.025 25.8232 26.8491 26.248 26.5359 26.5611C26.2227 26.8743 25.7979 27.0503 25.355 27.0503H19.315C18.2153 27.0439 17.1297 26.8023 16.1311 26.3418C15.1324 25.8813 14.2439 25.2125 13.525 24.3803H13.465C12.995 24.4703 12.465 24.5303 12.005 24.5803H11.785L11.895 24.7203C12.7463 25.8913 13.862 26.8448 15.1514 27.5034C16.4407 28.162 17.8672 28.5069 19.315 28.5103H25.365C26.197 28.5103 26.9952 28.1812 27.5853 27.5947C28.1755 27.0083 28.5097 26.2122 28.515 25.3803V19.3103C28.5117 17.8625 28.1667 16.436 27.5081 15.1466C26.8496 13.8573 25.896 12.7416 24.725 11.8903Z" fill="#2C2C2C"/>
</g>
<defs>
<clipPath id="clip0_24_6354">
<rect width="29" height="29" fill="white"/>
</clipPath>
</defs>
</svg>
