<svg width="35" height="36" viewBox="0 0 35 36" fill="none" xmlns="http://www.w3.org/2000/svg">
<path fill-rule="evenodd" clip-rule="evenodd" d="M17.3044 32.3762C17.2281 32.3873 17.1507 32.3873 17.0744 32.3762C16.5744 32.1962 5.43441 28.7462 5.43441 19.0162C5.43441 16.2962 5.43441 14.3162 5.37441 12.8562C5.30441 9.13621 5.30441 8.47621 6.15441 7.61621C7.22441 6.54621 15.7344 3.61621 17.2844 3.61621C18.8344 3.61621 27.3044 6.54621 28.4044 7.61621C29.2644 8.47621 29.2544 9.13621 29.1844 12.7662C29.1844 14.2662 29.1244 16.2562 29.1244 19.0162C29.1244 28.7262 17.9844 32.1962 17.5144 32.3362C17.4472 32.3616 17.3762 32.3751 17.3044 32.3762ZM17.3044 5.22621C16.0044 5.22621 8.30441 7.95621 7.30441 8.74621C6.93441 9.11621 6.92441 9.53621 6.98441 12.7462C6.98441 14.2162 7.0444 16.2262 7.0444 19.0062C7.02441 26.7462 15.4844 30.1062 17.1844 30.7462H17.2844H17.3744C19.0744 30.1362 27.5344 26.7462 27.5344 19.0562C27.5344 16.2762 27.5344 14.2662 27.5944 12.7862C27.6544 9.57621 27.6444 9.14621 27.2744 8.78621C26.3044 7.94621 18.5744 5.22621 17.3044 5.22621Z" fill="#2C2C2C"/>
<path fill-rule="evenodd" clip-rule="evenodd" d="M16.3044 21.0859C16.0916 21.0871 15.8868 21.0045 15.7344 20.8559L13.0144 18.1259C12.8678 17.9764 12.7857 17.7753 12.7857 17.5659C12.7857 17.3565 12.8678 17.1555 13.0144 17.0059C13.088 16.9306 13.1759 16.8708 13.2729 16.83C13.3699 16.7891 13.4741 16.7681 13.5794 16.7681C13.6847 16.7681 13.7889 16.7891 13.8859 16.83C13.9829 16.8708 14.0708 16.9306 14.1444 17.0059L16.3044 19.1659L21.3044 14.1159C21.3753 14.0289 21.4637 13.9578 21.5638 13.9072C21.664 13.8566 21.7736 13.8277 21.8857 13.8222C21.9978 13.8168 22.1097 13.835 22.2143 13.8756C22.3189 13.9162 22.4138 13.9784 22.4928 14.0581C22.5718 14.1378 22.6331 14.2332 22.6728 14.3382C22.7125 14.4431 22.7297 14.5552 22.7233 14.6673C22.7168 14.7793 22.6869 14.8887 22.6354 14.9884C22.5839 15.0881 22.512 15.1758 22.4244 15.2459L16.8144 20.8559C16.6782 20.9922 16.4968 21.074 16.3044 21.0859Z" fill="#2C2C2C"/>
</svg>
