<svg width="35" height="35" viewBox="0 0 35 35" fill="none" xmlns="http://www.w3.org/2000/svg">
<path fill-rule="evenodd" clip-rule="evenodd" d="M17.4599 29.7034C12.7364 29.7034 8.70118 28.9888 8.70118 26.1275C8.70118 23.2663 12.7101 20.7754 17.4599 20.7754C22.1835 20.7754 26.2186 23.2429 26.2186 26.1028C26.2186 28.9625 22.2098 29.7034 17.4599 29.7034Z" stroke="#2C2C2C" stroke-width="1.5" stroke-linecap="round" stroke-linejoin="round"/>
<path fill-rule="evenodd" clip-rule="evenodd" d="M17.4603 16.6965C20.5608 16.6965 23.0749 14.1837 23.0749 11.0833C23.0749 7.98292 20.5608 5.46875 17.4603 5.46875C14.3599 5.46875 11.8457 7.98292 11.8457 11.0833C11.837 14.1721 14.3308 16.6862 17.4209 16.6965H17.4603Z" stroke="#2C2C2C" stroke-width="1.5" stroke-linecap="round" stroke-linejoin="round"/>
<path d="M26.7777 15.1541C28.5816 14.6715 29.9117 13.0265 29.9117 11.0679C29.9117 9.0248 28.4635 7.31855 26.5356 6.9248" stroke="#2C2C2C" stroke-width="1.5" stroke-linecap="round" stroke-linejoin="round"/>
<path d="M27.6245 19.752C30.1824 19.752 32.367 21.4858 32.367 23.0346C32.367 23.9461 31.613 24.9392 30.4698 25.2076" stroke="#2C2C2C" stroke-width="1.5" stroke-linecap="round" stroke-linejoin="round"/>
<path d="M8.14274 15.1541C6.33732 14.6715 5.00732 13.0265 5.00732 11.0679C5.00732 9.0248 6.45691 7.31855 8.38336 6.9248" stroke="#2C2C2C" stroke-width="1.5" stroke-linecap="round" stroke-linejoin="round"/>
<path d="M7.29377 19.752C4.73584 19.752 2.55127 21.4858 2.55127 23.0346C2.55127 23.9461 3.30522 24.9392 4.45002 25.2076" stroke="#2C2C2C" stroke-width="1.5" stroke-linecap="round" stroke-linejoin="round"/>
</svg>
