<svg width="33" height="33" viewBox="0 0 33 33" fill="none" xmlns="http://www.w3.org/2000/svg">
<g clip-path="url(#clip0_24_6347)">
<path d="M11.5377 5.54675L13.0763 6.79938L12.4686 8.62675C12.3993 8.84987 12.3833 9.08613 12.422 9.31654C12.4606 9.54695 12.5528 9.76507 12.6911 9.95337C12.8294 10.1417 13.0099 10.2949 13.2182 10.4007C13.4265 10.5066 13.6567 10.5621 13.8903 10.5627C14.1859 10.5627 14.4719 10.4761 14.7194 10.3111L16.5138 9.10938L18.3426 10.3015C18.8719 10.6453 19.5636 10.6164 20.0641 10.2327C20.5646 9.84637 20.7681 9.18363 20.5646 8.57312L19.9389 6.79113L21.4707 5.54263C21.9478 5.14113 22.1252 4.47837 21.9107 3.89263C21.6962 3.30688 21.1352 2.91363 20.5109 2.91363H18.5887L17.8971 0.972125C17.6826 0.3905 17.1216 0 16.5014 0C15.8813 0 15.3203 0.3905 15.1017 0.979L14.4128 2.91225H12.4906C11.8677 2.91225 11.3067 3.30413 11.0922 3.88575C10.8763 4.46875 11.0509 5.13425 11.5377 5.54675ZM12.4906 4.28725H14.8968C15.0387 4.28727 15.177 4.24341 15.293 4.16168C15.4089 4.07995 15.4968 3.96436 15.5444 3.83075L16.3969 1.441H16.6032L17.4557 3.83075C17.5033 3.96436 17.5912 4.07995 17.7071 4.16168C17.8231 4.24341 17.9614 4.28727 18.1033 4.28725H20.5096L20.5921 4.4825L18.6946 6.02938C18.585 6.11868 18.5056 6.23961 18.4672 6.37567C18.4288 6.51174 18.4333 6.65633 18.4801 6.78975L19.2652 9.02825L19.0906 9.14925L16.8823 7.711C16.7694 7.63757 16.6375 7.59882 16.5029 7.59956C16.3682 7.60029 16.2367 7.64047 16.1247 7.71513L13.9536 9.1685C13.9345 9.18136 13.9119 9.18808 13.8889 9.18775L13.7762 9.04887L14.5311 6.7815C14.5749 6.64916 14.5775 6.50661 14.5384 6.37277C14.4994 6.23894 14.4206 6.12013 14.3124 6.03212L12.4053 4.48112L12.4906 4.28725ZM32.9107 7.86775C32.8053 7.58111 32.6147 7.33362 32.3644 7.15859C32.1142 6.98356 31.8163 6.88939 31.5109 6.88875H29.5887L28.8971 4.94725C28.6826 4.36562 28.1216 3.97513 27.5014 3.97513C26.8813 3.97513 26.3203 4.36562 26.1017 4.95412L25.4128 6.88737H23.4906C22.8677 6.88737 22.3053 7.28063 22.0936 7.86088C21.8777 8.44525 22.0509 9.108 22.5377 9.5205L24.0763 10.7731L23.4686 12.6005C23.3773 12.8947 23.3793 13.21 23.4744 13.503C23.5695 13.796 23.753 14.0524 23.9996 14.237C24.2462 14.4216 24.544 14.5252 24.8519 14.5338C25.1599 14.5424 25.4629 14.4554 25.7194 14.2849L27.5138 13.0831L29.3426 14.2752C29.8706 14.619 30.5636 14.5901 31.0641 14.2065C31.5646 13.8201 31.7681 13.1574 31.5646 12.5469L30.9389 10.7649L32.4707 9.51637C32.9478 9.11487 33.1252 8.4535 32.9107 7.86775ZM29.6959 10.0045C29.5863 10.0938 29.5069 10.2147 29.4685 10.3508C29.4302 10.4869 29.4347 10.6315 29.4814 10.7649L30.2666 13.0034L30.0919 13.1244L27.8837 11.6861C27.7707 11.613 27.6388 11.5745 27.5042 11.5752C27.3697 11.576 27.2382 11.6159 27.1261 11.6902L24.9549 13.1436C24.9359 13.1565 24.9133 13.1632 24.8903 13.1629L24.7776 13.024L25.5324 10.7566C25.5763 10.6243 25.5788 10.4817 25.5398 10.3479C25.5007 10.2141 25.4219 10.0953 25.3138 10.0072L23.4067 8.45625L23.4919 8.26375H25.8982C26.04 8.26377 26.1784 8.21991 26.2944 8.13818C26.4103 8.05645 26.4981 7.94086 26.5458 7.80725L27.3983 5.4175H27.6046L28.4571 7.80725C28.5047 7.94086 28.5925 8.05645 28.7085 8.13818C28.8244 8.21991 28.9628 8.26377 29.1047 8.26375H31.5109L31.5934 8.459L29.6959 10.0045ZM7.34118 14.2766C7.87055 14.6204 8.56218 14.5915 9.06268 14.2079C9.56318 13.8215 9.76668 13.1588 9.56318 12.5483L8.93755 10.7662L10.4693 9.51775C10.9464 9.11625 11.1238 8.4535 10.9093 7.86775C10.804 7.58111 10.6133 7.33362 10.3631 7.15859C10.1128 6.98356 9.81494 6.88939 9.50955 6.88875H7.5873L6.89568 4.94725C6.68118 4.36562 6.12018 3.97513 5.50005 3.97513C4.87993 3.97513 4.31893 4.36562 4.1003 4.95412L3.41143 6.88737H1.48918C0.866304 6.88737 0.303929 7.28063 0.092179 7.86088C-0.123696 8.44525 0.049554 9.108 0.536304 9.5205L2.07493 10.7731L1.46718 12.6005C1.37591 12.8947 1.37795 13.21 1.47304 13.503C1.56812 13.796 1.75158 14.0524 1.99823 14.237C2.24487 14.4216 2.5426 14.5252 2.85054 14.5338C3.15848 14.5424 3.46152 14.4554 3.71805 14.2849L5.51243 13.0831L7.34118 14.2752V14.2766ZM5.12468 11.6902L2.95355 13.1436C2.93448 13.1565 2.91193 13.1632 2.88893 13.1629L2.77618 13.024L3.53105 10.7566C3.57489 10.6243 3.57746 10.4817 3.53841 10.3479C3.49937 10.2141 3.42055 10.0953 3.31243 10.0072L1.4053 8.45625L1.49055 8.26375H3.8968C4.03866 8.26377 4.17705 8.21991 4.29299 8.13818C4.40894 8.05645 4.49677 7.94086 4.54443 7.80725L5.39693 5.4175H5.60318L6.45568 7.80725C6.50334 7.94086 6.59117 8.05645 6.70711 8.13818C6.82306 8.21991 6.96145 8.26377 7.1033 8.26375H9.50955L9.59205 8.459L7.69455 10.0059C7.58496 10.0952 7.50556 10.2161 7.46718 10.3522C7.42879 10.4882 7.43329 10.6328 7.48005 10.7662L8.26518 13.0048L8.09055 13.1257L5.8823 11.6875C5.76931 11.6144 5.63745 11.5759 5.50288 11.5766C5.3683 11.5773 5.23687 11.6173 5.12468 11.6916V11.6902ZM23.3751 19.25H17.6234L18.4306 14.6713C18.4516 14.2056 18.4516 13.9613 18.4306 13.9384C18.3572 13.6477 18.2221 13.3763 18.0344 13.1426C17.8467 12.9089 17.6109 12.7183 17.3429 12.584C17.0686 12.4531 16.7692 12.3829 16.4652 12.3781C16.1613 12.3734 15.8599 12.4342 15.5816 12.5565C15.2323 12.7009 14.8913 13.0611 14.6479 13.5355L11.6284 19.2486H9.62643C7.35218 19.2486 5.50143 21.0994 5.50143 23.3736V28.8736C5.50143 31.1479 7.35218 32.9986 9.62643 32.9986H21.1476C23.7601 32.9986 26.0288 31.1383 26.5417 28.5766L27.4203 24.1821C27.541 23.5837 27.5268 22.966 27.3789 22.3738C27.2309 21.7816 26.9529 21.2297 26.5651 20.7584C26.1789 20.2855 25.6922 19.9047 25.1404 19.6435C24.5886 19.3824 23.9855 19.2475 23.3751 19.2486V19.25ZM6.87643 28.875V23.375C6.87643 21.8584 8.1098 20.625 9.62643 20.625H11.0014V31.625H9.62643C8.1098 31.625 6.87643 30.3916 6.87643 28.875ZM26.0714 23.914L25.1928 28.3085C25.0035 29.2425 24.4976 30.0826 23.7606 30.6869C23.0236 31.2911 22.1006 31.6225 21.1476 31.625H12.3764V20.4036C12.5737 20.2762 12.7347 20.1 12.8439 19.8921L15.8689 14.1707C15.9982 13.9177 16.1192 13.8256 16.1123 13.8256C16.21 13.7797 16.3164 13.7554 16.4244 13.7542C16.5323 13.753 16.6392 13.775 16.7379 13.8188C16.8754 13.8861 16.9841 14.0044 17.0776 14.2189L16.2718 19.0094C16.2364 19.2072 16.2448 19.4104 16.2965 19.6045C16.3482 19.7987 16.4418 19.9792 16.5708 20.1333C16.6999 20.2874 16.8611 20.4112 17.0432 20.4962C17.2253 20.5812 17.4239 20.6251 17.6248 20.625H23.3764C23.7833 20.6242 24.1852 20.7141 24.553 20.8882C24.9207 21.0623 25.245 21.3162 25.5022 21.6315C25.7611 21.9456 25.9466 22.3134 26.0453 22.7083C26.1441 23.1031 26.1521 23.5151 26.0714 23.914Z" fill="#2C2C2C"/>
</g>
<defs>
<clipPath id="clip0_24_6347">
<rect width="33" height="33" fill="white"/>
</clipPath>
</defs>
</svg>
