<svg width="32" height="32" viewBox="0 0 32 32" fill="none" xmlns="http://www.w3.org/2000/svg">
<path d="M6 8.00033H2.66667M6 16.0003H2.66667M6 24.0003H2.66667M6 13.3337C6 8.30566 6 5.79099 7.56267 4.22966C9.12533 2.66833 11.6387 2.66699 16.6667 2.66699H18.6667C23.6947 2.66699 26.2093 2.66699 27.7707 4.22966C29.332 5.79233 29.3333 8.30566 29.3333 13.3337V18.667C29.3333 23.695 29.3333 26.2097 27.7707 27.771C26.208 29.3323 23.6947 29.3337 18.6667 29.3337H16.6667C11.6387 29.3337 9.124 29.3337 7.56267 27.771C6.00133 26.2083 6 23.695 6 18.667V13.3337Z" stroke="#2C2C2C" stroke-width="1.5" stroke-linecap="round" stroke-linejoin="round"/>
<path d="M20.3667 11.3239C20.3667 12.0311 20.0857 12.7094 19.5856 13.2095C19.0855 13.7096 18.4072 13.9906 17.7 13.9906C16.9928 13.9906 16.3145 13.7096 15.8144 13.2095C15.3143 12.7094 15.0333 12.0311 15.0333 11.3239C15.0333 10.6166 15.3143 9.93837 15.8144 9.43828C16.3145 8.93818 16.9928 8.65723 17.7 8.65723C18.4072 8.65723 19.0855 8.93818 19.5856 9.43828C20.0857 9.93837 20.3667 10.6166 20.3667 11.3239ZM12.4267 20.9546C13.8373 18.7812 16.0787 17.9679 17.7 17.9692C19.3213 17.9706 21.496 18.7826 22.908 20.9559C22.9553 21.0218 22.9835 21.0996 22.9894 21.1805C22.9952 21.2615 22.9786 21.3425 22.9413 21.4146C22.612 21.9999 21.5867 23.1612 20.848 23.2399C19.9973 23.3292 17.772 23.3426 17.7013 23.3426C17.6307 23.3426 15.3373 23.3292 14.488 23.2399C13.7467 23.1599 12.7227 21.9999 12.392 21.4132C12.3107 21.2679 12.3347 21.0959 12.4267 20.9546Z" stroke="#2C2C2C" stroke-width="1.5" stroke-linecap="round" stroke-linejoin="round"/>
</svg>
