<svg width="24" height="24" viewBox="0 0 24 24" fill="none" xmlns="http://www.w3.org/2000/svg">
<g clip-path="url(#clip0_1_301)">
<g clip-path="url(#clip1_1_301)">
<path d="M9 10C9 10.552 8.552 11 8 11C7.448 11 7 10.552 7 10C7 9.448 7.448 9 8 9C8.552 9 9 9.448 9 10ZM16 9C15.448 9 15 9.448 15 10C15 10.552 15.448 11 16 11C16.552 11 17 10.552 17 10C17 9.448 16.552 9 16 9ZM24 12C24 5.383 18.617 0 12 0C5.383 0 0 5.383 0 12C0 18.617 5.383 24 12 24C18.617 24 24 18.617 24 12ZM23 12C23 18.065 18.065 23 12 23C5.935 23 1 18.065 1 12C1 5.935 5.935 1 12 1C18.065 1 23 5.935 23 12ZM17.977 14.872L18.255 13.996L17.368 14.239C17.34 14.247 14.558 15.001 11.995 15.001C9.432 15.001 6.66 14.247 6.633 14.239L5.747 13.996L6.023 14.871C6.088 15.08 7.689 20 11.989 20H12.002C16.301 20 17.91 15.081 17.977 14.872ZM11.996 16C13.764 16 15.585 15.671 16.663 15.436C16.04 16.726 14.577 19 12.003 19H11.99C9.425 19 7.963 16.727 7.34 15.437C8.416 15.672 10.232 16 11.996 16Z" fill="#2C2C2C" fill-opacity="0.6"/>
</g>
</g>
<defs>
<clipPath id="clip0_1_301">
<rect width="24" height="24" fill="white"/>
</clipPath>
<clipPath id="clip1_1_301">
<rect width="24" height="24" fill="white"/>
</clipPath>
</defs>
</svg>
