<svg width="24" height="24" viewBox="0 0 24 24" fill="none" xmlns="http://www.w3.org/2000/svg">
<g clip-path="url(#clip0_1_319)">
<path d="M21.987 10.756C21.88 9.32102 21.326 7.84102 20.41 6.49702C20.446 6.49802 20.482 6.50002 20.518 6.50002C21.325 6.50002 22.082 6.18702 22.652 5.61602C23.782 4.48702 24.607 1.82802 23.39 0.610023C22.17 -0.606977 19.514 0.219024 18.384 1.34802C17.768 1.96402 17.475 2.78302 17.504 3.59202C16.167 2.68302 14.696 2.13502 13.252 2.02202C12.781 1.49602 11.205 -0.000976562 8.5 -0.000976562H6.5C6.224 -0.000976562 6 0.223023 6 0.499023C6 0.775023 6.224 0.999023 6.5 0.999023H8.5C10.053 0.999023 11.158 1.57202 11.828 2.07202C10.257 2.29402 8.755 3.01202 7.54 4.22602C6.084 5.68102 4.612 8.34302 3.764 11.006C2.339 11.085 0 11.881 0 14.499C0 14.775 0.224 14.999 0.5 14.999C0.776 14.999 1 14.775 1 14.499C1 12.667 2.599 12.178 3.464 12.047C2.777 14.73 2.855 16.964 3.674 18.517C3.222 19.258 2.749 20.133 2.539 20.695C2.36 21.174 2.826 21.639 3.304 21.46C3.865 21.25 4.74 20.777 5.481 20.326C6.332 20.775 7.387 21.001 8.608 21.001C9.616 21.001 10.738 20.846 11.951 20.535C11.82 21.4 11.331 22.999 9.499 22.999C9.223 22.999 8.999 23.223 8.999 23.499C8.999 23.775 9.223 23.999 9.499 23.999C12.117 23.999 12.913 21.66 12.992 20.235C15.655 19.387 18.318 17.914 19.772 16.459C20.983 15.248 21.731 13.766 21.942 12.194C22.438 12.866 22.998 13.964 22.998 15.499V17.499C22.998 17.775 23.222 17.999 23.498 17.999C23.774 17.999 23.998 17.775 23.998 17.499V15.499C23.998 12.809 22.519 11.236 21.985 10.755L21.987 10.756ZM19.091 2.05502C19.701 1.44502 20.831 1.00302 21.706 1.00302C22.112 1.00302 22.464 1.09802 22.683 1.31602C23.371 2.00502 22.838 4.01402 21.945 4.90802C21.183 5.67002 19.853 5.67002 19.091 4.90802C18.304 4.12102 18.304 2.84202 19.091 2.05402V2.05502ZM20.872 9.99902H16.12L14 7.87902V3.13702C15.543 3.45602 17.089 4.32202 18.384 5.61702C19.679 6.91202 20.555 8.46702 20.872 10.001V9.99902ZM10.38 9.37902L13.303 8.59602L15.443 10.736L14.668 13.627C14.661 13.633 14.654 13.639 14.647 13.646C14.64 13.653 14.634 13.66 14.628 13.667L11.737 14.442L9.597 12.302L10.38 9.37902ZM12.064 19.471C12.043 19.477 12.022 19.482 12.001 19.488V15.407L14.919 14.625L17.38 17.086C15.884 18.064 13.953 18.944 12.064 19.471ZM8.248 4.93302C9.496 3.68502 11.076 2.99902 12.701 2.99902H12.729C12.819 2.99902 12.91 3.00302 13 3.00702V7.64102L10.121 8.41302L7.5 5.79202C7.747 5.47102 7.998 5.18202 8.247 4.93302H8.248ZM6.914 6.62002L9.414 9.12002L8.642 11.999H4.511C4.517 11.978 4.522 11.957 4.528 11.936C5.055 10.047 5.936 8.11602 6.914 6.62002ZM5.145 18.855C4.027 17.737 3.722 15.636 4.27 13H8.88L11 15.12V19.731C8.363 20.279 6.262 19.975 5.145 18.856V18.855ZM19.067 15.752C18.818 16.001 18.528 16.252 18.208 16.499L15.627 13.918L16.409 11H21C21 11.007 21 11.014 21.001 11.021C21.074 12.753 20.387 14.434 19.067 15.753V15.752Z" fill="#2C2C2C" fill-opacity="0.6"/>
</g>
<defs>
<clipPath id="clip0_1_319">
<rect width="24" height="24" fill="white"/>
</clipPath>
</defs>
</svg>
