<svg width="24" height="24" viewBox="0 0 24 24" fill="none" xmlns="http://www.w3.org/2000/svg">
<g clip-path="url(#clip0_1_339)">
<path d="M12 0C6.486 0 2 4.389 2 9.783C2 15.005 6.73 20.317 9.55 23.018C10.237 23.676 11.118 24.005 12 24.005C12.882 24.005 13.763 23.676 14.45 23.018C17.27 20.317 22 15.005 22 9.783C22 4.389 17.514 0 12 0ZM13.759 22.296C12.773 23.24 11.228 23.24 10.241 22.296C7.537 19.705 3 14.633 3 9.783C3 4.933 7.038 1 12 1C16.962 1 21 4.94 21 9.783C21 14.626 16.463 19.705 13.759 22.296ZM9.852 8.263C9.012 7.422 7.644 7.175 6.645 7.116C6.205 7.085 5.77 7.254 5.457 7.567C5.144 7.88 4.979 8.313 5.006 8.755C5.065 9.754 5.312 11.122 6.153 11.963C6.993 12.803 8.452 13.054 9.452 13.113C9.862 13.113 10.258 12.95 10.549 12.658C10.862 12.345 11.026 11.912 11 11.47C10.94 10.47 10.691 9.103 9.852 8.263ZM9.841 11.951C9.729 12.064 9.582 12.119 9.419 12.112C8.251 12.042 7.342 11.738 6.859 11.256C6.376 10.774 6.072 9.864 6.003 8.696C5.994 8.537 6.05 8.387 6.163 8.275C6.267 8.171 6.404 8.114 6.551 8.114C7.719 8.183 8.662 8.489 9.145 8.971C9.628 9.453 9.932 10.363 10.001 11.531C10.01 11.69 9.954 11.839 9.841 11.951ZM18.544 7.567C18.232 7.254 17.8 7.085 17.356 7.116C16.357 7.175 14.989 7.423 14.149 8.263C13.309 9.103 13.061 10.471 13.002 11.47C12.976 11.912 13.14 12.345 13.453 12.658C13.745 12.95 14.14 13.113 14.551 13.113C15.551 13.053 17.009 12.802 17.849 11.963C18.69 11.122 18.937 9.755 18.996 8.755C19.022 8.313 18.857 7.88 18.544 7.567ZM17.997 8.695C17.928 9.863 17.623 10.772 17.141 11.255C16.659 11.738 15.749 12.042 14.582 12.111C14.413 12.114 14.272 12.063 14.16 11.95C14.047 11.837 13.991 11.688 14 11.529C14.07 10.361 14.374 9.452 14.856 8.969C15.338 8.486 16.282 8.181 17.45 8.112C17.596 8.112 17.733 8.169 17.838 8.273C17.951 8.386 18.007 8.535 17.998 8.694L17.997 8.695Z" fill="#2C2C2C" fill-opacity="0.6"/>
</g>
<defs>
<clipPath id="clip0_1_339">
<rect width="24" height="24" fill="white"/>
</clipPath>
</defs>
</svg>
