<svg width="24" height="24" viewBox="0 0 24 24" fill="none" xmlns="http://www.w3.org/2000/svg">
<path d="M11.9998 10C9.37181 10.047 9.37181 13.953 11.9998 14C14.6278 13.953 14.6278 10.046 11.9998 10ZM11.9998 13C10.6928 12.993 10.6928 11.007 11.9998 11C13.3068 11.007 13.3068 12.993 11.9998 13Z" fill="#2C2C2C" fill-opacity="0.6"/>
<path d="M23.9999 12C23.9999 10.332 22.4559 8.81599 19.7709 7.79299C21.0559 1.45799 16.9989 -1.12401 11.9999 3.06399C7.00085 -1.12701 2.94485 1.45999 4.22885 7.79299C-1.36715 9.80899 -1.36615 14.192 4.22885 16.207C2.88685 22.843 7.34085 24.949 11.9999 20.943C16.6609 24.952 21.1119 22.839 19.7709 16.207C22.4569 15.184 23.9999 13.669 23.9999 12ZM17.7379 2.30599C19.6849 3.23799 18.9819 8.32199 17.9049 10.744C17.2619 9.45399 16.4179 8.02799 15.5729 6.89399C14.7359 5.74199 13.8049 4.68299 12.7709 3.71399C14.7759 2.13399 16.6099 1.60699 17.7379 2.30599ZM16.8179 13.188C16.2709 14.262 15.5999 15.353 14.8929 16.333C12.9709 16.548 11.0289 16.548 9.10685 16.333C8.13585 14.992 7.28585 13.51 6.62185 12C7.28585 10.489 8.13685 9.00899 9.10685 7.66699C11.0279 7.44999 12.9719 7.44999 14.8929 7.66699C15.8629 9.00899 16.7139 10.489 17.3779 12C17.2049 12.391 17.0058 12.794 16.8169 13.188H16.8179ZM6.26285 2.30499C8.89185 1.01899 12.2459 4.39199 14.0719 6.57999C11.0979 6.37699 8.02185 6.58099 5.17285 7.45399C4.73685 4.90599 5.13285 3.00099 6.26285 2.30499ZM0.999851 12C0.812851 9.95299 5.33985 8.16399 7.75385 7.85999C6.23085 10.166 5.10485 12.607 4.42985 15.224C2.27085 14.372 0.999851 13.188 0.999851 12ZM6.26285 21.694C4.31485 20.76 5.01885 15.678 6.09585 13.256C7.39985 15.871 9.10485 18.301 11.2299 20.286C9.22485 21.866 7.38985 22.396 6.26285 21.694ZM17.7379 21.694C15.8009 23.108 11.5119 19.618 9.92885 17.42C12.9029 17.623 15.9799 17.42 18.8279 16.545C19.2639 19.094 18.8679 20.998 17.7379 21.694ZM19.0429 15.419C18.1479 15.732 17.1989 15.962 16.2469 16.14C17.7709 13.833 18.8959 11.393 19.5709 8.77699C24.4069 10.643 23.9349 13.773 19.0439 15.42L19.0429 15.419Z" fill="#2C2C2C" fill-opacity="0.6"/>
</svg>
