<svg width="24" height="24" viewBox="0 0 24 24" fill="none" xmlns="http://www.w3.org/2000/svg">
<g clip-path="url(#clip0_1_313)">
<path d="M13 20.5C13 20.776 12.776 21 12.5 21H4.5C2.019 21 0 18.981 0 16.5V4.5C0 2.019 2.019 0 4.5 0H16.5C18.981 0 21 2.019 21 4.5V12.5C21 12.776 20.776 13 20.5 13C20.224 13 20 12.776 20 12.5V4.5C20 2.57 18.43 1 16.5 1H4.5C2.57 1 1 2.57 1 4.5V12.836L4.811 9.025C6.133 7.703 8.439 7.703 9.761 9.025L16.855 16.147C17.05 16.342 17.049 16.659 16.855 16.854C16.757 16.951 16.629 17 16.502 17C16.374 17 16.246 16.951 16.148 16.853L9.054 9.732C8.111 8.789 6.463 8.788 5.519 9.732L1 14.25V16.5C1 18.43 2.57 20 4.5 20H12.5C12.776 20 13 20.224 13 20.5ZM17 5.5C17 6.879 15.878 8 14.5 8C13.122 8 12 6.879 12 5.5C12 4.121 13.122 3 14.5 3C15.878 3 17 4.121 17 5.5ZM16 5.5C16 4.673 15.327 4 14.5 4C13.673 4 13 4.673 13 5.5C13 6.327 13.673 7 14.5 7C15.327 7 16 6.327 16 5.5ZM23.5 19H20V15.5C20 15.224 19.776 15 19.5 15C19.224 15 19 15.224 19 15.5V19H15.5C15.224 19 15 19.224 15 19.5C15 19.776 15.224 20 15.5 20H19V23.5C19 23.776 19.224 24 19.5 24C19.776 24 20 23.776 20 23.5V20H23.5C23.776 20 24 19.776 24 19.5C24 19.224 23.776 19 23.5 19Z" fill="#2C2C2C" fill-opacity="0.6"/>
</g>
<defs>
<clipPath id="clip0_1_313">
<rect width="24" height="24" fill="white"/>
</clipPath>
</defs>
</svg>
