<svg width="24" height="24" viewBox="0 0 24 24" fill="none" xmlns="http://www.w3.org/2000/svg">
<g clip-path="url(#clip0_1_332)">
<path d="M19.2568 17C17.9908 17 16.7998 17.493 15.9028 18.389L12.9028 21.389C11.8648 22.428 10.4838 23 9.01376 23H2.62176C1.82276 23 1.32376 22.482 1.12376 21.999C0.922756 21.516 0.910756 20.797 1.47476 20.232L2.12076 19.586C2.52576 19.855 3.00176 20 3.49976 20C4.16776 20 4.79576 19.74 5.26776 19.268L12.7938 11.742C13.2528 11.887 14.0008 12 14.4688 12C15.9288 12 17.3418 11.418 18.3778 10.382L19.3818 9.37703C20.4738 8.28603 21.0618 6.77403 20.9948 5.23103C20.9268 3.66603 20.2248 2.24603 19.0178 1.23103C16.8498 -0.58897 13.4968 -0.36197 11.3848 1.74903L10.7488 2.38603C9.16276 3.97203 8.63976 6.25703 9.24976 8.21503L1.73176 15.732C0.877756 16.586 0.772756 17.908 1.41376 18.878L0.766756 19.525C0.002756 20.289 -0.214244 21.383 0.198756 22.381C0.611756 23.379 1.53976 23.999 2.62076 23.999H9.01376C10.7508 23.999 12.3828 23.322 13.6098 22.095L16.6098 19.095C17.3178 18.389 18.2568 17.999 19.2558 17.999C21.3898 17.999 22.9988 19.504 22.9988 21.499V23.999H23.9988V21.499C23.9988 18.934 21.9598 16.999 19.2558 16.999L19.2568 17ZM11.4568 3.09303L12.0928 2.45603C13.0558 1.49303 14.3258 1.00003 15.5698 1.00003C16.5828 1.00003 17.5788 1.32803 18.3758 1.99703C19.3658 2.82903 19.9408 3.99303 19.9968 5.27403C20.0518 6.53903 19.5698 7.77603 18.6758 8.67003L17.6718 9.67503C16.7768 10.57 15.5318 11.051 14.2748 10.996C12.9928 10.94 11.8298 10.364 10.9988 9.37503C9.50776 7.60103 9.70976 4.84103 11.4578 3.09303H11.4568ZM2.43876 16.439L9.67276 9.20503C9.83076 9.48903 10.0168 9.76103 10.2308 10.017C10.6818 10.554 11.2138 10.991 11.8028 11.317L4.55976 18.56C3.99376 19.126 3.00476 19.126 2.43876 18.56C1.85376 17.975 1.85376 17.024 2.43876 16.439Z" fill="#2C2C2C" fill-opacity="0.6"/>
</g>
<defs>
<clipPath id="clip0_1_332">
<rect width="24" height="24" fill="white"/>
</clipPath>
</defs>
</svg>
